<svg width="16" height="16" viewBox="0 0 16 16" fill="none" xmlns="http://www.w3.org/2000/svg">
<g id="comments-question 1" clip-path="url(#clip0_4766_3113)">
<path id="Vector" d="M10.242 1.75732C9.01333 0.527989 7.30933 -0.111345 5.566 0.015322C2.54867 0.228655 0 3.05932 0 6.19732V9.55599C0 10.9033 1.09467 12 2.44067 12H5.42533C8.88333 12 11.7647 9.55532 11.9847 6.43399C12.108 4.69199 11.4727 2.98732 10.2427 1.75666L10.242 1.75732ZM6 9.66666C5.54 9.66666 5.16667 9.29332 5.16667 8.83332C5.16667 8.37332 5.54 7.99999 6 7.99999C6.46 7.99999 6.83333 8.37332 6.83333 8.83332C6.83333 9.29332 6.46 9.66666 6 9.66666ZM6.96467 6.41932C6.66667 6.58332 6.66667 6.63132 6.66667 6.66666C6.66667 7.03532 6.368 7.33332 6 7.33332C5.632 7.33332 5.33333 7.03532 5.33333 6.66666C5.33333 5.79466 6.02533 5.41399 6.32067 5.25132C6.514 5.14532 6.71733 4.89466 6.65533 4.54066C6.60933 4.27932 6.38733 4.05732 6.12667 4.01199C5.92267 3.97466 5.72533 4.02666 5.572 4.15599C5.42 4.28266 5.33333 4.46932 5.33333 4.66732C5.33333 5.03599 5.03467 5.33399 4.66667 5.33399C4.29867 5.33399 4 5.03599 4 4.66732C4 4.07466 4.26067 3.51599 4.71467 3.13466C5.16867 2.75332 5.766 2.59199 6.35667 2.69932C7.16267 2.83999 7.826 3.50266 7.968 4.31066C8.11667 5.15866 7.71333 6.00599 6.964 6.41999L6.96467 6.41932ZM16 10.6667V14C16 15.1047 15.1047 16 14 16H10.6667C8.69667 16 6.97667 14.9233 6.05333 13.3307L6.08 13.304C9.938 13.0093 13.06 10.1413 13.3147 6.52799C13.326 6.37199 13.3213 6.21732 13.3227 6.06199L13.3313 6.05332C14.924 6.97666 16 8.69666 16 10.6667Z" fill="currentColor"/>
</g>
<defs>
<clipPath id="clip0_4766_3113">
<rect width="16" height="16" fill="white"/>
</clipPath>
</defs>
</svg>
