<svg width="30" height="30" viewBox="0 0 30 30" fill="none" xmlns="http://www.w3.org/2000/svg">
<g clip-path="url(#clip0_5667_1089)">
<path d="M17.707 0H6.50977C5.43164 0 4.55273 0.878906 4.55273 1.96289V28.043C4.55273 29.127 5.43164 30 6.51562 30.0059H26.1738C27.2578 30.0059 28.1309 29.127 28.1367 28.043L28.0781 8.67188L17.707 0Z" fill="#FCA235"/>
<path d="M17.707 0C17.7049 0.61265 17.6972 4.85416 17.6931 7.17012C17.6916 7.99957 18.3636 8.67188 19.193 8.67188H28.0781L17.707 0Z" fill="#3A0101"/>
<path d="M2.66602 14.4551H22.4473C22.8867 14.4551 23.2441 14.8125 23.2441 15.252V24.0879C23.2441 24.5273 22.8867 24.8848 22.4473 24.8848H2.66602C2.22656 24.8848 1.86914 24.5273 1.86914 24.0879V15.252C1.86914 14.8125 2.22656 14.4551 2.66602 14.4551Z" fill="#3A0101"/>
<path d="M8.79492 20.1211L9.98437 20.4785C9.91992 20.7832 9.79102 21.0645 9.60937 21.3164C9.44531 21.5391 9.22266 21.709 8.9707 21.8203C8.71875 21.9316 8.39062 21.9902 7.99805 21.9902C7.52344 21.9902 7.13086 21.9199 6.82617 21.7852C6.52148 21.6504 6.26367 21.4043 6.04687 21.0527C5.83008 20.7012 5.71875 20.2559 5.71875 19.7109C5.71875 18.9844 5.91211 18.4277 6.29883 18.0352C6.68555 17.6426 7.23047 17.4492 7.93945 17.4492C8.49023 17.4492 8.92969 17.5605 9.24609 17.7832C9.5625 18.0059 9.79688 18.3516 9.94922 18.8145L8.75391 19.0781C8.72461 18.9727 8.68359 18.873 8.61914 18.7852C8.54883 18.6855 8.44922 18.6035 8.33789 18.5449C8.2207 18.4863 8.09766 18.457 7.96875 18.4629C7.6875 18.4512 7.41797 18.5918 7.26562 18.832C7.14258 19.0137 7.07813 19.3008 7.07813 19.6992C7.07813 20.1855 7.1543 20.5195 7.30078 20.7012C7.44727 20.8828 7.65234 20.9707 7.92187 20.9766C8.17969 20.9766 8.37891 20.9062 8.50781 20.7598C8.63672 20.6133 8.73047 20.4023 8.79492 20.1211Z" fill="white"/>
<path d="M10.4062 20.4668L11.6953 20.3848C11.7246 20.5957 11.7773 20.7539 11.8652 20.8652C12.0059 21.041 12.2051 21.1289 12.4629 21.1289C12.6562 21.1289 12.8086 21.082 12.9082 20.9941C13.0078 20.918 13.0664 20.8008 13.0664 20.6777C13.0664 20.5605 13.0078 20.4492 12.9141 20.373C12.8145 20.2852 12.5859 20.1973 12.2168 20.1152C11.625 19.9805 11.1973 19.8047 10.9453 19.582C10.6934 19.3711 10.5527 19.0605 10.5645 18.7324C10.5645 18.5039 10.6348 18.2813 10.7637 18.0938C10.9102 17.8828 11.1152 17.7188 11.3555 17.6191C11.6191 17.502 11.9766 17.4492 12.4336 17.4492C12.9961 17.4492 13.4238 17.5547 13.7168 17.7598C14.0098 17.9648 14.1855 18.2988 14.2441 18.7559L12.9668 18.832C12.9316 18.6328 12.8613 18.4922 12.7559 18.3984C12.6445 18.3105 12.498 18.2637 12.3047 18.2637C12.1465 18.2637 12.0293 18.2988 11.9473 18.3633C11.8711 18.4219 11.8242 18.5098 11.8242 18.6094C11.8242 18.6855 11.8652 18.7559 11.9238 18.7969C11.9883 18.8555 12.1406 18.9082 12.3809 18.9609C12.9727 19.0898 13.4004 19.2188 13.6523 19.3477C13.8809 19.4531 14.0742 19.623 14.2148 19.834C14.332 20.0273 14.3906 20.2559 14.3906 20.4844C14.3906 20.7598 14.3086 21.0352 14.1562 21.2637C13.998 21.5039 13.7695 21.6914 13.5059 21.8027C13.2246 21.9258 12.873 21.9844 12.4512 21.9844C11.707 21.9844 11.1855 21.8379 10.8984 21.5508C10.6055 21.2695 10.4297 20.877 10.4062 20.4668Z" fill="white"/>
<path d="M14.6367 17.5254H16.0547L17.0449 20.6836L18.0176 17.5254H19.3945L17.7656 21.9141H16.2949L14.6367 17.5254Z" fill="white"/>
</g>
<defs>
<clipPath id="clip0_5667_1089">
<rect width="30" height="30" fill="white"/>
</clipPath>
</defs>
</svg>
