<svg width="30" height="30" viewBox="0 0 30 30" fill="none" xmlns="http://www.w3.org/2000/svg">
<g clip-path="url(#clip0_5667_1168)">
<path d="M17.707 0H6.50977C5.43164 0 4.55273 0.878906 4.55273 1.96289V28.043C4.55273 29.127 5.43164 30 6.51562 30.0059H26.1738C27.2578 30.0059 28.1309 29.127 28.1367 28.043L28.0781 8.67188L17.707 0Z" fill="#00ADAD"/>
<path d="M17.707 0C17.7049 0.61265 17.6972 4.85416 17.6931 7.17012C17.6916 7.99957 18.3636 8.67188 19.193 8.67188H28.0781L17.707 0Z" fill="#52CECE"/>
<path d="M2.66602 14.4551H22.4473C22.8867 14.4551 23.2441 14.8125 23.2441 15.252V24.0879C23.2441 24.5273 22.8867 24.8848 22.4473 24.8848H2.66602C2.22656 24.8848 1.86914 24.5273 1.86914 24.0879V15.252C1.86914 14.8125 2.22656 14.4551 2.66602 14.4551Z" fill="#52CECE"/>
<path d="M17.6067 20.4355H18.7175C18.7027 20.7572 18.616 21.0407 18.4573 21.2861C18.2986 21.5316 18.0785 21.7231 17.7971 21.8606C17.5178 21.996 17.1877 22.0637 16.8069 22.0637C16.498 22.0637 16.2218 22.0119 15.9785 21.9082C15.7373 21.8045 15.5321 21.6554 15.3628 21.4607C15.1956 21.266 15.0676 21.0301 14.9788 20.7529C14.892 20.4757 14.8486 20.1637 14.8486 19.8167V19.5659C14.8486 19.2189 14.8941 18.9068 14.9851 18.6296C15.0782 18.3503 15.2094 18.1134 15.3787 17.9187C15.55 17.7219 15.7553 17.5717 15.9944 17.468C16.2335 17.3643 16.499 17.3125 16.791 17.3125C17.193 17.3125 17.5326 17.3844 17.8098 17.5283C18.087 17.6722 18.3018 17.87 18.4541 18.1218C18.6064 18.3715 18.6964 18.6561 18.7239 18.9756H17.613C17.6088 18.8021 17.5792 18.6571 17.5242 18.5408C17.4692 18.4223 17.3824 18.3334 17.2639 18.2742C17.1454 18.2149 16.9878 18.1853 16.791 18.1853C16.6535 18.1853 16.5339 18.2107 16.4324 18.2615C16.3308 18.3123 16.2462 18.3927 16.1785 18.5027C16.1108 18.6127 16.06 18.7555 16.0261 18.9312C15.9944 19.1047 15.9785 19.3141 15.9785 19.5596V19.8167C15.9785 20.0621 15.9933 20.2716 16.0229 20.4451C16.0526 20.6186 16.1002 20.7603 16.1658 20.8704C16.2314 20.9804 16.316 21.0618 16.4197 21.1147C16.5255 21.1655 16.6545 21.1909 16.8069 21.1909C16.9762 21.1909 17.119 21.1645 17.2354 21.1116C17.3517 21.0566 17.4417 20.974 17.5051 20.864C17.5686 20.7519 17.6025 20.609 17.6067 20.4355Z" fill="white"/>
<path d="M12.4746 20.9114L13.4363 17.3789H14.6836L13.1252 22H12.3191L12.4746 20.9114ZM11.6018 17.3789L12.5635 20.9114L12.7253 22H11.9097L10.3608 17.3789H11.6018Z" fill="white"/>
<path d="M9.08813 20.4355H10.199C10.1842 20.7572 10.0974 21.0407 9.93872 21.2861C9.78003 21.5316 9.55998 21.7231 9.27856 21.8606C8.99927 21.996 8.66919 22.0637 8.28833 22.0637C7.97941 22.0637 7.70329 22.0119 7.45996 21.9082C7.21875 21.8045 7.01351 21.6554 6.84424 21.4607C6.67708 21.266 6.54907 21.0301 6.46021 20.7529C6.37345 20.4757 6.33008 20.1637 6.33008 19.8167V19.5659C6.33008 19.2189 6.37557 18.9068 6.46655 18.6296C6.55965 18.3503 6.69084 18.1134 6.86011 17.9187C7.03149 17.7219 7.23674 17.5717 7.47583 17.468C7.71493 17.3643 7.98047 17.3125 8.27246 17.3125C8.67448 17.3125 9.01408 17.3844 9.29126 17.5283C9.56844 17.6722 9.7832 17.87 9.93555 18.1218C10.0879 18.3715 10.1778 18.6561 10.2053 18.9756H9.09448C9.09025 18.8021 9.06063 18.6571 9.00562 18.5408C8.9506 18.4223 8.86385 18.3334 8.74536 18.2742C8.62687 18.2149 8.46924 18.1853 8.27246 18.1853C8.13493 18.1853 8.01538 18.2107 7.91382 18.2615C7.81226 18.3123 7.72762 18.3927 7.65991 18.5027C7.5922 18.6127 7.54142 18.7555 7.50757 18.9312C7.47583 19.1047 7.45996 19.3141 7.45996 19.5596V19.8167C7.45996 20.0621 7.47477 20.2716 7.50439 20.4451C7.53402 20.6186 7.58162 20.7603 7.64722 20.8704C7.71281 20.9804 7.79744 21.0618 7.90112 21.1147C8.00692 21.1655 8.13599 21.1909 8.28833 21.1909C8.4576 21.1909 8.60042 21.1645 8.7168 21.1116C8.83317 21.0566 8.9231 20.974 8.98657 20.864C9.05005 20.7519 9.0839 20.609 9.08813 20.4355Z" fill="white"/>
</g>
<defs>
<clipPath id="clip0_5667_1168">
<rect width="30" height="30" fill="white"/>
</clipPath>
</defs>
</svg>
