<svg width="30" height="30" viewBox="0 0 30 30" fill="none" xmlns="http://www.w3.org/2000/svg">
<g clip-path="url(#clip0_5667_1155)">
<path d="M17.707 0H6.50977C5.43164 0 4.55273 0.878906 4.55273 1.96289V28.043C4.55273 29.127 5.43164 30 6.51562 30.0059H26.1738C27.2578 30.0059 28.1309 29.127 28.1367 28.043L28.0781 8.67188L17.707 0Z" fill="#0263D1"/>
<path d="M17.707 0C17.7049 0.61265 17.6972 4.85416 17.6931 7.17012C17.6916 7.99957 18.3636 8.67188 19.193 8.67188H28.0781L17.707 0Z" fill="#4E92DF"/>
<path d="M2.66602 14.4551H22.4473C22.8867 14.4551 23.2441 14.8125 23.2441 15.252V24.0879C23.2441 24.5273 22.8867 24.8848 22.4473 24.8848H2.66602C2.22656 24.8848 1.86914 24.5273 1.86914 24.0879V15.252C1.86914 14.8125 2.22656 14.4551 2.66602 14.4551Z" fill="#4E92DF"/>
<path d="M17.6956 20.4355H18.8064C18.7916 20.7572 18.7048 21.0407 18.5461 21.2861C18.3875 21.5316 18.1674 21.7231 17.886 21.8606C17.6067 21.996 17.2766 22.0637 16.8958 22.0637C16.5868 22.0637 16.3107 22.0119 16.0674 21.9082C15.8262 21.8045 15.6209 21.6554 15.4517 21.4607C15.2845 21.266 15.1565 21.0301 15.0676 20.7529C14.9809 20.4757 14.9375 20.1637 14.9375 19.8167V19.5659C14.9375 19.2189 14.983 18.9068 15.074 18.6296C15.1671 18.3503 15.2983 18.1134 15.4675 17.9187C15.6389 17.7219 15.8442 17.5717 16.0833 17.468C16.3223 17.3643 16.5879 17.3125 16.8799 17.3125C17.2819 17.3125 17.6215 17.3844 17.8987 17.5283C18.1759 17.6722 18.3906 17.87 18.543 18.1218C18.6953 18.3715 18.7852 18.6561 18.8127 18.9756H17.7019C17.6977 18.8021 17.6681 18.6571 17.613 18.5408C17.558 18.4223 17.4713 18.3334 17.3528 18.2742C17.2343 18.2149 17.0767 18.1853 16.8799 18.1853C16.7424 18.1853 16.6228 18.2107 16.5212 18.2615C16.4197 18.3123 16.335 18.3927 16.2673 18.5027C16.1996 18.6127 16.1488 18.7555 16.115 18.9312C16.0833 19.1047 16.0674 19.3141 16.0674 19.5596V19.8167C16.0674 20.0621 16.0822 20.2716 16.1118 20.4451C16.1414 20.6186 16.189 20.7603 16.2546 20.8704C16.3202 20.9804 16.4049 21.0618 16.5085 21.1147C16.6143 21.1655 16.7434 21.1909 16.8958 21.1909C17.065 21.1909 17.2078 21.1645 17.3242 21.1116C17.4406 21.0566 17.5305 20.974 17.594 20.864C17.6575 20.7519 17.6913 20.609 17.6956 20.4355Z" fill="white"/>
<path d="M14.49 19.5974V19.7847C14.49 20.138 14.4403 20.4554 14.3408 20.7368C14.2435 21.0161 14.1049 21.2552 13.925 21.4541C13.7452 21.6509 13.5326 21.8022 13.2871 21.908C13.0417 22.0116 12.7708 22.0635 12.4746 22.0635C12.1763 22.0635 11.9033 22.0116 11.6558 21.908C11.4103 21.8022 11.1966 21.6509 11.0146 21.4541C10.8348 21.2552 10.6951 21.0161 10.5957 20.7368C10.4984 20.4554 10.4497 20.138 10.4497 19.7847V19.5974C10.4497 19.2441 10.4984 18.9267 10.5957 18.6453C10.6951 18.3639 10.8337 18.1248 11.0115 17.928C11.1913 17.7291 11.404 17.5778 11.6494 17.4741C11.897 17.3683 12.1699 17.3154 12.4683 17.3154C12.7645 17.3154 13.0353 17.3683 13.2808 17.4741C13.5283 17.5778 13.742 17.7291 13.9219 17.928C14.1017 18.1248 14.2414 18.3639 14.3408 18.6453C14.4403 18.9267 14.49 19.2441 14.49 19.5974ZM13.3601 19.7847V19.5911C13.3601 19.3625 13.34 19.1615 13.2998 18.988C13.2617 18.8124 13.2046 18.6654 13.1284 18.5469C13.0522 18.4284 12.9581 18.3395 12.8459 18.2803C12.7359 18.2189 12.61 18.1882 12.4683 18.1882C12.3201 18.1882 12.1911 18.2189 12.0811 18.2803C11.971 18.3395 11.879 18.4284 11.8049 18.5469C11.7309 18.6654 11.6748 18.8124 11.6367 18.988C11.6007 19.1615 11.5828 19.3625 11.5828 19.5911V19.7847C11.5828 20.0111 11.6007 20.2121 11.6367 20.3877C11.6748 20.5612 11.7309 20.7083 11.8049 20.8289C11.8811 20.9495 11.9742 21.0404 12.0842 21.1018C12.1964 21.1632 12.3265 21.1938 12.4746 21.1938C12.6164 21.1938 12.7423 21.1632 12.8523 21.1018C12.9623 21.0404 13.0544 20.9495 13.1284 20.8289C13.2046 20.7083 13.2617 20.5612 13.2998 20.3877C13.34 20.2121 13.3601 20.0111 13.3601 19.7847Z" fill="white"/>
<path d="M7.87256 22H6.84741L6.85376 21.1431H7.87256C8.08415 21.1431 8.26294 21.0923 8.40894 20.9907C8.55705 20.8892 8.66919 20.7379 8.74536 20.5369C8.82365 20.3337 8.86279 20.0841 8.86279 19.7878V19.5879C8.86279 19.3657 8.84058 19.1711 8.79614 19.0039C8.75382 18.8346 8.69035 18.6939 8.60571 18.5818C8.52108 18.4675 8.41528 18.3818 8.28833 18.3247C8.16349 18.2676 8.01961 18.239 7.85669 18.239H6.82837V17.3789H7.85669C8.16984 17.3789 8.45654 17.4329 8.7168 17.5408C8.97917 17.6466 9.20557 17.7989 9.396 17.9978C9.58854 18.1946 9.73665 18.4284 9.84033 18.6992C9.94613 18.9679 9.99902 19.2663 9.99902 19.5942V19.7878C9.99902 20.1137 9.94613 20.412 9.84033 20.6829C9.73665 20.9537 9.5896 21.1875 9.39917 21.3843C9.20874 21.5811 8.9834 21.7334 8.72314 21.8413C8.46501 21.9471 8.18148 22 7.87256 22ZM7.48535 17.3789V22H6.37134V17.3789H7.48535Z" fill="white"/>
</g>
<defs>
<clipPath id="clip0_5667_1155">
<rect width="30" height="30" fill="white"/>
</clipPath>
</defs>
</svg>
