<svg width="30" height="30" viewBox="0 0 30 30" fill="none" xmlns="http://www.w3.org/2000/svg">
<path d="M19.8134 0H4.26593C3.83307 0 3.48218 0.350893 3.48218 1.03179V29.4643C3.48218 29.6491 3.83307 30 4.26593 30H25.7341C26.167 30 26.5179 29.6491 26.5179 29.4643V6.9525C26.5179 6.57964 26.4681 6.45964 26.3802 6.37125L20.1466 0.137679C20.0582 0.0498214 19.9383 0 19.8134 0Z" fill="#009578"/>
<path d="M20.0894 0.0810547V6.42873H26.437L20.0894 0.0810547Z" fill="#26B99A"/>
<path d="M10.1415 10.1786C11.4933 10.1786 12.5892 9.0827 12.5892 7.73088C12.5892 6.37907 11.4933 5.2832 10.1415 5.2832C8.78971 5.2832 7.69385 6.37907 7.69385 7.73088C7.69385 9.0827 8.78971 10.1786 10.1415 10.1786Z" fill="#EEEEEE"/>
<path d="M3.48218 20.8928H9.37504H26.5179V14.9999L21.1608 9.91064L15.5358 16.0714L12.5984 13.134L3.48218 20.8928Z" fill="#26B99A"/>
<path d="M25.7341 30.0002H4.26593C3.83307 30.0002 3.48218 29.6493 3.48218 29.2165V20.8931H26.5179V29.2165C26.5179 29.6493 26.167 30.0002 25.7341 30.0002Z" fill="#009578"/>
<path d="M22.563 25.6104V27.4099C22.4953 27.4967 22.3884 27.5908 22.2424 27.6924C22.0986 27.7939 21.9102 27.8818 21.6775 27.9558C21.4447 28.0278 21.1591 28.0637 20.8206 28.0637C20.5264 28.0637 20.2577 28.0151 20.0144 27.9177C19.7711 27.8183 19.5616 27.6733 19.386 27.4829C19.2104 27.2925 19.075 27.0597 18.9797 26.7847C18.8845 26.5096 18.8369 26.1954 18.8369 25.842V25.5374C18.8369 25.184 18.8813 24.8698 18.9702 24.5947C19.0612 24.3197 19.1903 24.0869 19.3574 23.8965C19.5267 23.7061 19.7288 23.5611 19.9636 23.4617C20.2006 23.3622 20.4651 23.3125 20.7571 23.3125C21.1485 23.3125 21.4701 23.377 21.7219 23.5061C21.9758 23.6352 22.1705 23.8129 22.3059 24.0393C22.4413 24.2636 22.526 24.5217 22.5598 24.8137H21.7092C21.686 24.6529 21.6394 24.5122 21.5696 24.3916C21.4998 24.2689 21.4003 24.1737 21.2712 24.106C21.1443 24.0361 20.9792 24.0012 20.7761 24.0012C20.6047 24.0012 20.4535 24.0351 20.3223 24.1028C20.1911 24.1705 20.0811 24.2689 19.9922 24.3979C19.9033 24.527 19.8356 24.6868 19.7891 24.8772C19.7446 25.0676 19.7224 25.2856 19.7224 25.531V25.842C19.7224 26.0896 19.7478 26.3097 19.7986 26.5022C19.8494 26.6926 19.9224 26.8534 20.0176 26.9846C20.1149 27.1137 20.2345 27.2121 20.3762 27.2798C20.5201 27.3454 20.683 27.3782 20.865 27.3782C21.03 27.3782 21.1665 27.3644 21.2744 27.3369C21.3844 27.3073 21.4722 27.2724 21.5378 27.2322C21.6034 27.192 21.6542 27.1528 21.6902 27.1147V26.2483H20.7729V25.6104H22.563Z" fill="white"/>
<path d="M18.3513 27.3145V28H15.8948V27.3145H18.3513ZM16.1614 23.3789V28H15.2886V23.3789H16.1614ZM18.0308 25.2864V25.9561H15.8948V25.2864H18.0308ZM18.3418 23.3789V24.0676H15.8948V23.3789H18.3418Z" fill="white"/>
<path d="M12.8955 26.3147H11.7053V25.6292H12.8955C13.0902 25.6292 13.2478 25.5974 13.3684 25.5339C13.4911 25.4683 13.5811 25.3795 13.6382 25.2673C13.6953 25.1531 13.7239 25.0229 13.7239 24.877C13.7239 24.7352 13.6953 24.6029 13.6382 24.4802C13.5811 24.3575 13.4911 24.2581 13.3684 24.1819C13.2478 24.1057 13.0902 24.0676 12.8955 24.0676H11.991V28H11.1182V23.3789H12.8955C13.2552 23.3789 13.562 23.4434 13.8159 23.5725C14.0719 23.6995 14.2666 23.8761 14.3999 24.1025C14.5353 24.3268 14.603 24.5828 14.603 24.8706C14.603 25.1689 14.5353 25.426 14.3999 25.6418C14.2666 25.8577 14.0719 26.0238 13.8159 26.1401C13.562 26.2565 13.2552 26.3147 12.8955 26.3147Z" fill="white"/>
<path d="M9.37891 26.5972V23.3789H10.2517V26.5972C10.2517 26.904 10.1851 27.1674 10.0518 27.3875C9.91846 27.6054 9.73649 27.7725 9.50586 27.8889C9.27523 28.0053 9.01497 28.0635 8.7251 28.0635C8.42676 28.0635 8.16227 28.0138 7.93164 27.9143C7.70101 27.8127 7.5201 27.6583 7.38892 27.4509C7.25985 27.2436 7.19531 26.9801 7.19531 26.6606H8.07129C8.07129 26.8341 8.09774 26.9738 8.15063 27.0796C8.20353 27.1854 8.27865 27.2616 8.37598 27.3081C8.47542 27.3547 8.5918 27.3779 8.7251 27.3779C8.85417 27.3779 8.96737 27.3483 9.0647 27.2891C9.16414 27.2277 9.24137 27.1388 9.29639 27.0225C9.3514 26.9061 9.37891 26.7643 9.37891 26.5972Z" fill="white"/>
</svg>
