<svg width="30" height="30" viewBox="0 0 30 30" fill="none" xmlns="http://www.w3.org/2000/svg">
<path d="M19.8134 0H4.26593C3.83307 0 3.48218 0.350893 3.48218 1.03179V29.4643C3.48218 29.6491 3.83307 30 4.26593 30H25.7341C26.167 30 26.5179 29.6491 26.5179 29.4643V6.9525C26.5179 6.57964 26.4681 6.45964 26.3802 6.37125L20.1466 0.137679C20.0582 0.0498214 19.9383 0 19.8134 0Z" fill="#009578"/>
<path d="M20.0894 0.0810547V6.42873H26.437L20.0894 0.0810547Z" fill="#26B99A"/>
<path d="M10.1415 10.1786C11.4933 10.1786 12.5892 9.0827 12.5892 7.73088C12.5892 6.37907 11.4933 5.2832 10.1415 5.2832C8.78971 5.2832 7.69385 6.37907 7.69385 7.73088C7.69385 9.0827 8.78971 10.1786 10.1415 10.1786Z" fill="#EEEEEE"/>
<path d="M3.48218 20.8928H9.37504H26.5179V14.9999L21.1608 9.91064L15.5358 16.0714L12.5984 13.134L3.48218 20.8928Z" fill="#26B99A"/>
<path d="M25.7341 30.0002H4.26593C3.83307 30.0002 3.48218 29.6493 3.48218 29.2165V20.8931H26.5179V29.2165C26.5179 29.6493 26.167 30.0002 25.7341 30.0002Z" fill="#009578"/>
<path d="M11.4783 22.8481V27.0524C11.4783 27.3064 11.4317 27.5201 11.339 27.6931C11.2463 27.8662 11.1215 28.0055 10.9656 28.1105C10.8092 28.2155 10.6297 28.2889 10.4272 28.3301C10.2242 28.3719 10.0158 28.3928 9.80094 28.3928C9.69326 28.3928 9.56737 28.3815 9.4238 28.3596C9.27969 28.3376 9.13076 28.3039 8.97701 28.2573C8.82326 28.2106 8.67541 28.1581 8.53398 28.0998C8.39201 28.0414 8.27255 27.9755 8.17505 27.9021L8.54844 27.309C8.59719 27.3428 8.66683 27.3787 8.75737 27.4151C8.84737 27.4515 8.94648 27.4858 9.05416 27.5174C9.1613 27.5496 9.2738 27.5769 9.39112 27.6015C9.50844 27.6262 9.61826 27.638 9.72058 27.638C9.97933 27.638 10.1856 27.5876 10.3393 27.488C10.4931 27.3883 10.5745 27.218 10.5847 26.979V22.8481H11.4783Z" fill="white"/>
<path d="M13.6682 28.3564H12.7891V22.958H14.3416C14.5708 22.958 14.798 22.9944 15.0225 23.0678C15.2469 23.1412 15.4483 23.251 15.6267 23.3973C15.8051 23.5435 15.9492 23.7209 16.0591 23.9282C16.1689 24.1355 16.2241 24.3685 16.2241 24.6278C16.2241 24.9016 16.1775 25.1491 16.0848 25.3714C15.9921 25.5937 15.8625 25.7807 15.6964 25.9318C15.5303 26.0828 15.33 26.2002 15.0958 26.2832C14.8617 26.3662 14.6025 26.4075 14.3196 26.4075H13.6676L13.6682 28.3564ZM13.6682 23.625V25.7635H14.4739C14.581 25.7635 14.6871 25.7453 14.7926 25.7084C14.8976 25.6719 14.9941 25.6119 15.0819 25.5289C15.1698 25.4459 15.2405 25.3302 15.2941 25.1812C15.3476 25.0323 15.3744 24.848 15.3744 24.6284C15.3744 24.5405 15.3621 24.4387 15.338 24.3246C15.3133 24.21 15.2635 24.1002 15.188 23.9952C15.1119 23.8902 15.0058 23.8023 14.8692 23.7316C14.7321 23.6603 14.5516 23.625 14.3271 23.625H13.6682Z" fill="white"/>
<path d="M21.1608 25.5727V27.6599C21.0483 27.8019 20.923 27.917 20.7837 28.0076C20.6444 28.0981 20.4982 28.1726 20.3444 28.231C20.1907 28.2894 20.0321 28.3311 19.8682 28.3552C19.7042 28.381 19.5425 28.3927 19.3812 28.3927C19.0587 28.3927 18.7625 28.3344 18.4914 28.217C18.2203 28.0997 17.9835 27.9267 17.781 27.6969C17.5785 27.467 17.4194 27.1794 17.3048 26.8327C17.1901 26.4861 17.1328 26.0854 17.1328 25.6317C17.1328 25.1779 17.1901 24.7783 17.3048 24.4344C17.4194 24.0899 17.578 23.8033 17.781 23.574C17.9835 23.3442 18.2214 23.1701 18.4951 23.0501C18.7683 22.9301 19.0641 22.8706 19.3812 22.8706C19.6742 22.8706 19.9475 22.9194 20.2014 23.0169C20.4553 23.1149 20.6819 23.2611 20.8823 23.4561L20.2742 23.9983C20.1569 23.8563 20.0225 23.754 19.8714 23.6908C19.7198 23.6276 19.5639 23.5954 19.4026 23.5954C19.2221 23.5954 19.0496 23.6292 18.8862 23.6977C18.7223 23.7663 18.576 23.882 18.4469 24.0454C18.3173 24.2094 18.216 24.4199 18.1432 24.6792C18.0703 24.9385 18.0307 25.2551 18.0258 25.6311C18.0307 25.9976 18.0687 26.3147 18.1394 26.5831C18.2101 26.8515 18.3076 27.0711 18.4325 27.242C18.5573 27.4129 18.6987 27.5399 18.8573 27.6229C19.0158 27.706 19.183 27.7472 19.3592 27.7472C19.4128 27.7472 19.4846 27.7435 19.5751 27.736C19.6651 27.7285 19.7557 27.7167 19.8462 27.6995C19.9362 27.6824 20.023 27.6594 20.106 27.6299C20.1891 27.6004 20.2501 27.5592 20.2892 27.5056V26.1727H19.3737V25.5722L21.1608 25.5727Z" fill="white"/>
</svg>
