<svg width="30" height="30" viewBox="0 0 30 30" fill="none" xmlns="http://www.w3.org/2000/svg">
<g clip-path="url(#clip0_5667_1128)">
<path d="M17.707 0H6.50977C5.43164 0 4.55273 0.878906 4.55273 1.96289V28.043C4.55273 29.127 5.43164 30 6.51562 30.0059H26.1738C27.2578 30.0059 28.1309 29.127 28.1367 28.043L28.0781 8.67188L17.707 0Z" fill="#E5252A"/>
<path d="M17.707 0C17.7049 0.61265 17.6972 4.85416 17.6931 7.17012C17.6916 7.99957 18.3636 8.67188 19.193 8.67188H28.0781L17.707 0Z" fill="#ED676A"/>
<path d="M2.66602 14.4551H22.4473C22.8867 14.4551 23.2441 14.8125 23.2441 15.252V24.0879C23.2441 24.5273 22.8867 24.8848 22.4473 24.8848H2.66602C2.22656 24.8848 1.86914 24.5273 1.86914 24.0879V15.252C1.86914 14.8125 2.22656 14.4551 2.66602 14.4551Z" fill="#ED676A"/>
<path d="M16.9102 17.3789V22H15.7961V17.3789H16.9102ZM18.7065 19.3022V20.1592H16.5928V19.3022H18.7065ZM18.8875 17.3789V18.239H16.5928V17.3789H18.8875Z" fill="white"/>
<path d="M13.0889 22H12.0637L12.0701 21.1431H13.0889C13.3005 21.1431 13.4792 21.0923 13.6252 20.9907C13.7734 20.8892 13.8855 20.7379 13.9617 20.5369C14.04 20.3337 14.0791 20.0841 14.0791 19.7878V19.5879C14.0791 19.3657 14.0569 19.1711 14.0125 19.0039C13.9701 18.8346 13.9067 18.6939 13.822 18.5818C13.7374 18.4675 13.6316 18.3818 13.5046 18.3247C13.3798 18.2676 13.2359 18.239 13.073 18.239H12.0447V17.3789H13.073C13.3861 17.3789 13.6729 17.4329 13.9331 17.5408C14.1955 17.6466 14.4219 17.7989 14.6123 17.9978C14.8049 18.1946 14.953 18.4284 15.0566 18.6992C15.1624 18.9679 15.2153 19.2663 15.2153 19.5942V19.7878C15.2153 20.1137 15.1624 20.412 15.0566 20.6829C14.953 20.9537 14.8059 21.1875 14.6155 21.3843C14.425 21.5811 14.1997 21.7334 13.9395 21.8413C13.6813 21.9471 13.3978 22 13.0889 22ZM12.7017 17.3789V22H11.5876V17.3789H12.7017Z" fill="white"/>
<path d="M9.19775 20.4321H8.04883V19.572H9.19775C9.35433 19.572 9.48128 19.5456 9.57861 19.4927C9.67594 19.4398 9.74683 19.3668 9.79126 19.2737C9.83781 19.1785 9.86108 19.0716 9.86108 18.9531C9.86108 18.8262 9.83781 18.7087 9.79126 18.6008C9.74683 18.4929 9.67594 18.4062 9.57861 18.3406C9.48128 18.2729 9.35433 18.239 9.19775 18.239H8.46777V22H7.35376V17.3789H9.19775C9.56803 17.3789 9.88647 17.4466 10.1531 17.582C10.4218 17.7174 10.6281 17.9036 10.772 18.1406C10.9159 18.3755 10.9878 18.6442 10.9878 18.9468C10.9878 19.2451 10.9159 19.5054 10.772 19.7275C10.6281 19.9497 10.4218 20.1232 10.1531 20.248C9.88647 20.3708 9.56803 20.4321 9.19775 20.4321Z" fill="white"/>
</g>
<defs>
<clipPath id="clip0_5667_1128">
<rect width="30" height="30" fill="white"/>
</clipPath>
</defs>
</svg>
