<svg width="30" height="30" viewBox="0 0 30 30" fill="none" xmlns="http://www.w3.org/2000/svg">
<path d="M19.8134 0H4.26593C3.83307 0 3.48218 0.350893 3.48218 1.03179V29.4643C3.48218 29.6491 3.83307 30 4.26593 30H25.7341C26.167 30 26.5179 29.6491 26.5179 29.4643V6.9525C26.5179 6.57964 26.4681 6.45964 26.3802 6.37125L20.1466 0.137679C20.0582 0.0498214 19.9383 0 19.8134 0Z" fill="#659C35"/>
<path d="M25.7341 30.0002H4.26593C3.83307 30.0002 3.48218 29.6493 3.48218 29.2165V20.8931H26.5179V29.2165C26.5179 29.6493 26.167 30.0002 25.7341 30.0002Z" fill="#659C35"/>
<path d="M20.0894 0.0810547V4.42873C20.0894 5.5333 20.9848 6.42873 22.0894 6.42873H26.437L20.0894 0.0810547Z" fill="#88C057"/>
<path d="M9.31343 28.393H8.43433V22.9951H9.98683C10.2161 22.9951 10.4433 23.0315 10.6677 23.1049C10.8922 23.1783 11.0936 23.2882 11.272 23.4344C11.4504 23.5807 11.5945 23.758 11.7043 23.9653C11.8141 24.1726 11.8693 24.4057 11.8693 24.6649C11.8693 24.9387 11.8227 25.1862 11.73 25.4085C11.6374 25.6308 11.5077 25.8178 11.3416 25.9689C11.1756 26.1199 10.9752 26.2373 10.7411 26.3203C10.507 26.4033 10.2477 26.4446 9.96486 26.4446H9.3129L9.31343 28.393ZM9.31343 23.6615V25.8001H10.1191C10.2263 25.8001 10.3324 25.7819 10.4379 25.7449C10.5429 25.7085 10.6393 25.6485 10.7272 25.5655C10.815 25.4824 10.8858 25.3667 10.9393 25.2178C10.9929 25.0689 11.0197 24.8846 11.0197 24.6649C11.0197 24.5771 11.0074 24.4753 10.9833 24.3612C10.9586 24.2465 10.9088 24.1367 10.8333 24.0317C10.7572 23.9267 10.6511 23.8389 10.5145 23.7682C10.3779 23.6974 10.1968 23.6621 9.97236 23.6621L9.31343 23.6615Z" fill="white"/>
<path d="M16.7766 22.9951V28.393H15.883L13.7664 24.6724V28.393H12.8728V22.9951H13.7664L15.883 26.7157V22.9951H16.7766Z" fill="white"/>
<path d="M22.05 25.6099V27.697C21.9375 27.839 21.8122 27.9542 21.6729 28.0447C21.5336 28.1353 21.3873 28.2097 21.2336 28.2681C21.0798 28.3265 20.9207 28.3683 20.7573 28.3929C20.5934 28.4176 20.4316 28.4294 20.2704 28.4294C19.9479 28.4294 19.6516 28.371 19.3805 28.2537C19.1095 28.1363 18.8727 27.9633 18.6702 27.7335C18.4677 27.5037 18.3086 27.216 18.1939 26.8694C18.0793 26.5228 18.022 26.122 18.022 25.6683C18.022 25.2145 18.0793 24.8149 18.1939 24.471C18.3086 24.1265 18.4672 23.8399 18.6702 23.6106C18.8727 23.3808 19.1105 23.2067 19.3843 23.0867C19.6575 22.9667 19.9532 22.9072 20.2704 22.9072C20.5634 22.9072 20.8366 22.956 21.0905 23.0535C21.3445 23.1515 21.5711 23.2978 21.7714 23.4928L21.1634 24.0349C21.0461 23.8929 20.9116 23.7906 20.7605 23.7274C20.6089 23.6642 20.453 23.632 20.2918 23.632C20.1113 23.632 19.9388 23.6658 19.7754 23.7344C19.6114 23.8029 19.4652 23.9187 19.3361 24.082C19.2064 24.246 19.1052 24.4565 19.0323 24.7158C18.9595 24.9751 18.9198 25.2917 18.915 25.6678C18.9198 26.0342 18.9579 26.3513 19.0286 26.6197C19.0993 26.8881 19.1968 27.1078 19.3216 27.2787C19.4464 27.4495 19.5879 27.5765 19.7464 27.6595C19.905 27.7426 20.0722 27.7838 20.2484 27.7838C20.302 27.7838 20.3738 27.7801 20.4643 27.7726C20.5543 27.7651 20.6448 27.7533 20.7354 27.7362C20.8254 27.719 20.9122 27.696 20.9952 27.6665C21.0782 27.637 21.1393 27.5958 21.1784 27.5422V26.2094H20.2629V25.6088H22.05V25.6099Z" fill="white"/>
<path d="M10.1415 10.1786C11.4933 10.1786 12.5892 9.0827 12.5892 7.73088C12.5892 6.37907 11.4933 5.2832 10.1415 5.2832C8.78971 5.2832 7.69385 6.37907 7.69385 7.73088C7.69385 9.0827 8.78971 10.1786 10.1415 10.1786Z" fill="#EEEEEE"/>
<path d="M3.48218 20.8928H9.37504H26.5179V14.9999L21.1608 9.91064L15.5358 16.0714L12.5984 13.134L3.48218 20.8928Z" fill="#88C057"/>
</svg>
