<svg width="30" height="30" viewBox="0 0 30 30" fill="none" xmlns="http://www.w3.org/2000/svg">
<g clip-path="url(#clip0_5667_1141)">
<path d="M17.707 0H6.50977C5.43164 0 4.55273 0.878906 4.55273 1.96289V28.043C4.55273 29.127 5.43164 30 6.51562 30.0059H26.1738C27.2578 30.0059 28.1309 29.127 28.1367 28.043L28.0781 8.67188L17.707 0Z" fill="#F15642"/>
<path d="M17.707 0C17.7049 0.61265 17.6972 4.85416 17.6931 7.17012C17.6916 7.99957 18.3636 8.67188 19.193 8.67188H28.0781L17.707 0Z" fill="#FD8171"/>
<path d="M2.66602 14.4551H22.4473C22.8867 14.4551 23.2441 14.8125 23.2441 15.252V24.0879C23.2441 24.5273 22.8867 24.8848 22.4473 24.8848H2.66602C2.22656 24.8848 1.86914 24.5273 1.86914 24.0879V15.252C1.86914 14.8125 2.22656 14.4551 2.66602 14.4551Z" fill="#FD8171"/>
<path d="M19.8206 20.4321H18.6716V19.572H19.8206C19.9771 19.572 20.1041 19.5456 20.2014 19.4927C20.2987 19.4398 20.3696 19.3668 20.4141 19.2737C20.4606 19.1785 20.4839 19.0716 20.4839 18.9531C20.4839 18.8262 20.4606 18.7087 20.4141 18.6008C20.3696 18.4929 20.2987 18.4062 20.2014 18.3406C20.1041 18.2729 19.9771 18.239 19.8206 18.239H19.0906V22H17.9766V17.3789H19.8206C20.1908 17.3789 20.5093 17.4466 20.7759 17.582C21.0446 17.7174 21.2509 17.9036 21.3948 18.1406C21.5387 18.3755 21.6106 18.6442 21.6106 18.9468C21.6106 19.2451 21.5387 19.5054 21.3948 19.7275C21.2509 19.9497 21.0446 20.1232 20.7759 20.248C20.5093 20.3708 20.1908 20.4321 19.8206 20.4321Z" fill="white"/>
<path d="M15.666 20.0354H14.4758L14.4695 19.3054H15.4343C15.6078 19.3054 15.7464 19.2864 15.8501 19.2483C15.9538 19.2081 16.0289 19.1499 16.0754 19.0737C16.1241 18.9976 16.1484 18.9023 16.1484 18.7881C16.1484 18.6569 16.1241 18.5511 16.0754 18.4707C16.0268 18.3903 15.9495 18.3321 15.8438 18.2961C15.7401 18.2581 15.6057 18.239 15.4407 18.239H14.8948V22H13.7808V17.3789H15.4407C15.7263 17.3789 15.9813 17.4054 16.2056 17.4583C16.4299 17.509 16.6203 17.5873 16.7769 17.6931C16.9355 17.7989 17.0562 17.9322 17.1387 18.093C17.2212 18.2517 17.2625 18.439 17.2625 18.6548C17.2625 18.8431 17.2222 19.0198 17.1418 19.1848C17.0614 19.3499 16.9271 19.4842 16.7388 19.5879C16.5526 19.6895 16.2976 19.7424 15.9739 19.7466L15.666 20.0354ZM15.6216 22H14.2061L14.5869 21.1431H15.6216C15.7739 21.1431 15.8956 21.1198 15.9866 21.0732C16.0797 21.0246 16.1463 20.9611 16.1865 20.8828C16.2288 20.8024 16.25 20.7135 16.25 20.6162C16.25 20.4977 16.2299 20.3951 16.1897 20.3083C16.1516 20.2216 16.0903 20.1549 16.0056 20.1084C15.921 20.0597 15.8078 20.0354 15.666 20.0354H14.7297L14.7361 19.3054H15.8564L16.1167 19.5974C16.4256 19.5847 16.67 19.6281 16.8499 19.7275C17.0318 19.827 17.1619 19.9582 17.2402 20.1211C17.3185 20.284 17.3577 20.4543 17.3577 20.6321C17.3577 20.9347 17.2921 21.1875 17.1609 21.3906C17.0318 21.5938 16.8382 21.7461 16.5801 21.8477C16.3219 21.9492 16.0024 22 15.6216 22Z" fill="white"/>
<path d="M13.3237 21.1431V22H10.8608V21.1431H13.3237ZM11.2576 17.3789V22H10.1436V17.3789H11.2576ZM13.0063 19.2134V20.0417H10.8608V19.2134H13.0063ZM13.3333 17.3789V18.239H10.8608V17.3789H13.3333Z" fill="white"/>
<path d="M5.56055 21.5811L6.48096 17.3789H7.03003L7.32837 17.7375L6.34766 22H5.74146L5.56055 21.5811ZM5.31616 17.3789L6.09375 21.6128L5.8938 22H5.19238L4.21167 17.3789H5.31616ZM7.83301 21.5906L8.60425 17.3789H9.70557L8.72485 22H8.02661L7.83301 21.5906ZM7.42676 17.3789L8.36938 21.6064L8.17896 22H7.57275L6.56982 17.7312L6.88086 17.3789H7.42676Z" fill="white"/>
</g>
<defs>
<clipPath id="clip0_5667_1141">
<rect width="30" height="30" fill="white"/>
</clipPath>
</defs>
</svg>
