<svg width="30" height="30" viewBox="0 0 30 30" fill="none" xmlns="http://www.w3.org/2000/svg">
<g clip-path="url(#clip0_5667_1101)">
<path d="M17.707 0H6.50977C5.43164 0 4.55273 0.878906 4.55273 1.96289V28.043C4.55273 29.127 5.43164 30 6.51562 30.0059H26.1738C27.2578 30.0059 28.1309 29.127 28.1367 28.043L28.0781 8.67188L17.707 0Z" fill="#00733B"/>
<path d="M17.707 0C17.7049 0.61265 17.6972 4.85416 17.6931 7.17012C17.6916 7.99957 18.3636 8.67188 19.193 8.67188H28.0781L17.707 0Z" fill="#4D9D76"/>
<path d="M2.66602 14.4551H22.4473C22.8867 14.4551 23.2441 14.8125 23.2441 15.252V24.0879C23.2441 24.5273 22.8867 24.8848 22.4473 24.8848H2.66602C2.22656 24.8848 1.86914 24.5273 1.86914 24.0879V15.252C1.86914 14.8125 2.22656 14.4551 2.66602 14.4551Z" fill="#4D9D76"/>
<path d="M17.5354 20.7717C17.5354 20.6998 17.5248 20.6353 17.5037 20.5781C17.4825 20.5189 17.4434 20.4639 17.3862 20.4131C17.3291 20.3623 17.2466 20.3115 17.1387 20.2607C17.0329 20.2078 16.8932 20.1528 16.7197 20.0957C16.5166 20.028 16.3209 19.9518 16.1326 19.8672C15.9443 19.7804 15.776 19.6799 15.6279 19.5657C15.4798 19.4493 15.3624 19.3139 15.2756 19.1594C15.1889 19.0028 15.1455 18.8209 15.1455 18.6135C15.1455 18.4146 15.1899 18.2358 15.2788 18.0771C15.3677 17.9163 15.4915 17.7799 15.6501 17.6677C15.811 17.5535 15.9993 17.4667 16.2151 17.4075C16.4309 17.3461 16.6668 17.3154 16.9229 17.3154C17.2614 17.3154 17.5597 17.3747 17.8179 17.4932C18.0781 17.6095 18.2812 17.7756 18.4272 17.9915C18.5754 18.2052 18.6494 18.458 18.6494 18.75H17.5417C17.5417 18.6336 17.5174 18.531 17.4688 18.4421C17.4222 18.3533 17.3513 18.2834 17.2561 18.2327C17.1609 18.1819 17.0413 18.1565 16.8975 18.1565C16.7578 18.1565 16.6404 18.1777 16.5452 18.22C16.45 18.2623 16.378 18.3194 16.3293 18.3914C16.2807 18.4612 16.2563 18.5384 16.2563 18.623C16.2563 18.6929 16.2754 18.7563 16.3135 18.8135C16.3537 18.8685 16.4097 18.9203 16.4817 18.969C16.5557 19.0177 16.6446 19.0642 16.7483 19.1086C16.8541 19.1531 16.9726 19.1965 17.1038 19.2388C17.3492 19.3171 17.5671 19.4049 17.7576 19.5022C17.9501 19.5974 18.112 19.7064 18.2432 19.8291C18.3765 19.9497 18.477 20.0872 18.5447 20.2417C18.6145 20.3962 18.6494 20.5707 18.6494 20.7654C18.6494 20.9727 18.6092 21.1568 18.5288 21.3176C18.4484 21.4784 18.3331 21.6149 18.1829 21.7271C18.0326 21.8371 17.8528 21.9207 17.6433 21.9778C17.4338 22.0349 17.2 22.0635 16.9419 22.0635C16.7049 22.0635 16.4711 22.0339 16.2405 21.9746C16.012 21.9132 15.8046 21.8201 15.6184 21.6953C15.4322 21.5684 15.283 21.4065 15.1709 21.2097C15.0609 21.0108 15.0059 20.7749 15.0059 20.502H16.123C16.123 20.6374 16.141 20.7516 16.177 20.8447C16.213 20.9378 16.2659 21.0129 16.3357 21.0701C16.4055 21.1251 16.4912 21.1653 16.5928 21.1907C16.6943 21.2139 16.8107 21.2256 16.9419 21.2256C17.0837 21.2256 17.1979 21.2055 17.2847 21.1653C17.3714 21.123 17.4349 21.068 17.4751 21.0002C17.5153 20.9304 17.5354 20.8542 17.5354 20.7717Z" fill="white"/>
<path d="M14.6853 21.1431V22H12.3494V21.1431H14.6853ZM12.7461 17.3789V22H11.6321V17.3789H12.7461Z" fill="white"/>
<path d="M8.44873 17.3789L9.2041 18.915L9.95947 17.3789H11.229L9.94043 19.6704L11.2639 22H9.98169L9.2041 20.4353L8.42651 22H7.14111L8.46777 19.6704L7.17603 17.3789H8.44873Z" fill="white"/>
</g>
<defs>
<clipPath id="clip0_5667_1101">
<rect width="30" height="30" fill="white"/>
</clipPath>
</defs>
</svg>
