<svg width="30" height="30" viewBox="0 0 30 30" fill="none" xmlns="http://www.w3.org/2000/svg">
<g clip-path="url(#clip0_5667_1114)">
<path d="M17.707 0H6.50977C5.43164 0 4.55273 0.878906 4.55273 1.96289V28.043C4.55273 29.127 5.43164 30 6.51562 30.0059H26.1738C27.2578 30.0059 28.1309 29.127 28.1367 28.043L28.0781 8.67188L17.707 0Z" fill="#252A3F"/>
<path d="M17.707 0C17.7049 0.61265 17.6972 4.85416 17.6931 7.17012C17.6916 7.99957 18.3636 8.67188 19.193 8.67188H28.0781L17.707 0Z" fill="#87BA5A"/>
<path d="M2.66602 14.4551H22.4473C22.8867 14.4551 23.2441 14.8125 23.2441 15.252V24.0879C23.2441 24.5273 22.8867 24.8848 22.4473 24.8848H2.66602C2.22656 24.8848 1.86914 24.5273 1.86914 24.0879V15.252C1.86914 14.8125 2.22656 14.4551 2.66602 14.4551Z" fill="#87BA5A"/>
<path d="M18.1162 17.3789L18.8716 18.915L19.627 17.3789H20.8965L19.6079 19.6704L20.9314 22H19.6492L18.8716 20.4353L18.094 22H16.8086L18.1353 19.6704L16.8435 17.3789H18.1162Z" fill="white"/>
<path d="M15.4597 20.7717C15.4597 20.6998 15.4491 20.6353 15.428 20.5781C15.4068 20.5189 15.3677 20.4639 15.3105 20.4131C15.2534 20.3623 15.1709 20.3115 15.063 20.2607C14.9572 20.2078 14.8175 20.1528 14.644 20.0957C14.4409 20.028 14.2452 19.9518 14.0569 19.8672C13.8686 19.7804 13.7004 19.6799 13.5522 19.5657C13.4041 19.4493 13.2867 19.3139 13.2 19.1594C13.1132 19.0028 13.0698 18.8209 13.0698 18.6135C13.0698 18.4146 13.1143 18.2358 13.2031 18.0771C13.292 17.9163 13.4158 17.7799 13.5745 17.6677C13.7353 17.5535 13.9236 17.4667 14.1394 17.4075C14.3552 17.3461 14.5911 17.3154 14.8472 17.3154C15.1857 17.3154 15.484 17.3747 15.7422 17.4932C16.0024 17.6095 16.2056 17.7756 16.3516 17.9915C16.4997 18.2052 16.5737 18.458 16.5737 18.75H15.4661C15.4661 18.6336 15.4417 18.531 15.3931 18.4421C15.3465 18.3533 15.2756 18.2834 15.1804 18.2327C15.0852 18.1819 14.9657 18.1565 14.8218 18.1565C14.6821 18.1565 14.5647 18.1777 14.4695 18.22C14.3743 18.2623 14.3023 18.3194 14.2537 18.3914C14.205 18.4612 14.1807 18.5384 14.1807 18.623C14.1807 18.6929 14.1997 18.7563 14.2378 18.8135C14.278 18.8685 14.3341 18.9203 14.406 18.969C14.4801 19.0177 14.5689 19.0642 14.6726 19.1086C14.7784 19.1531 14.8969 19.1965 15.0281 19.2388C15.2735 19.3171 15.4915 19.4049 15.6819 19.5022C15.8744 19.5974 16.0363 19.7064 16.1675 19.8291C16.3008 19.9497 16.4013 20.0872 16.469 20.2417C16.5388 20.3962 16.5737 20.5707 16.5737 20.7654C16.5737 20.9727 16.5335 21.1568 16.4531 21.3176C16.3727 21.4784 16.2574 21.6149 16.1072 21.7271C15.9569 21.8371 15.7771 21.9207 15.5676 21.9778C15.3582 22.0349 15.1243 22.0635 14.8662 22.0635C14.6292 22.0635 14.3954 22.0339 14.1648 21.9746C13.9363 21.9132 13.7289 21.8201 13.5427 21.6953C13.3565 21.5684 13.2074 21.4065 13.0952 21.2097C12.9852 21.0108 12.9302 20.7749 12.9302 20.502H14.0474C14.0474 20.6374 14.0653 20.7516 14.1013 20.8447C14.1373 20.9378 14.1902 21.0129 14.26 21.0701C14.3298 21.1251 14.4155 21.1653 14.5171 21.1907C14.6187 21.2139 14.735 21.2256 14.8662 21.2256C15.008 21.2256 15.1222 21.2055 15.209 21.1653C15.2957 21.123 15.3592 21.068 15.3994 21.0002C15.4396 20.9304 15.4597 20.8542 15.4597 20.7717Z" fill="white"/>
<path d="M12.6096 21.1431V22H10.2737V21.1431H12.6096ZM10.6704 17.3789V22H9.5564V17.3789H10.6704Z" fill="white"/>
<path d="M6.37305 17.3789L7.12842 18.915L7.88379 17.3789H9.15332L7.86475 19.6704L9.18823 22H7.90601L7.12842 20.4353L6.35083 22H5.06543L6.39209 19.6704L5.10034 17.3789H6.37305Z" fill="white"/>
</g>
<defs>
<clipPath id="clip0_5667_1114">
<rect width="30" height="30" fill="white"/>
</clipPath>
</defs>
</svg>
