<svg width="16" height="16" viewBox="0 0 16 16" fill="none" xmlns="http://www.w3.org/2000/svg">
<path d="M7.99804 13.5C4.96552 13.5 2.49951 11.0333 2.49951 8C2.49951 4.96667 4.96552 2.5 7.99804 2.5C11.0306 2.5 13.4966 4.96667 13.4966 8C13.4966 11.0333 11.0306 13.5 7.99804 13.5ZM7.99804 3.5C5.5187 3.5 3.49924 5.52 3.49924 8C3.49924 10.48 5.5187 12.5 7.99804 12.5C10.4774 12.5 12.4968 10.48 12.4968 8C12.4968 5.52 10.4774 3.5 7.99804 3.5Z" fill="#76A8A2"/>
<path d="M7.99787 10.5C6.61824 10.5 5.49854 9.38 5.49854 8C5.49854 6.62 6.61824 5.5 7.99787 5.5C9.3775 5.5 10.4972 6.62 10.4972 8C10.4972 9.38 9.3775 10.5 7.99787 10.5ZM7.99787 6.5C7.17142 6.5 6.49827 7.17333 6.49827 8C6.49827 8.82667 7.17142 9.5 7.99787 9.5C8.82431 9.5 9.49747 8.82667 9.49747 8C9.49747 7.17333 8.82431 6.5 7.99787 6.5Z" fill="#76A8A2"/>
<path d="M7.99791 3.16659C7.72465 3.16659 7.49805 2.93992 7.49805 2.66659V1.33325C7.49805 1.05992 7.72465 0.833252 7.99791 0.833252C8.27117 0.833252 8.49778 1.05992 8.49778 1.33325V2.66659C8.49778 2.93992 8.27117 3.16659 7.99791 3.16659Z" fill="#76A8A2"/>
<path d="M2.66585 8.5H1.33287C1.05961 8.5 0.833008 8.27333 0.833008 8C0.833008 7.72667 1.05961 7.5 1.33287 7.5H2.66585C2.93911 7.5 3.16572 7.72667 3.16572 8C3.16572 8.27333 2.93911 8.5 2.66585 8.5Z" fill="#76A8A2"/>
<path d="M7.99791 15.1666C7.72465 15.1666 7.49805 14.9399 7.49805 14.6666V13.3333C7.49805 13.0599 7.72465 12.8333 7.99791 12.8333C8.27117 12.8333 8.49778 13.0599 8.49778 13.3333V14.6666C8.49778 14.9399 8.27117 15.1666 7.99791 15.1666Z" fill="#76A8A2"/>
<path d="M14.6629 8.5H13.3299C13.0567 8.5 12.8301 8.27333 12.8301 8C12.8301 7.72667 13.0567 7.5 13.3299 7.5H14.6629C14.9362 7.5 15.1628 7.72667 15.1628 8C15.1628 8.27333 14.9362 8.5 14.6629 8.5Z" fill="#76A8A2"/>
</svg>
