<svg width="16" height="16" viewBox="0 0 16 16" fill="none" xmlns="http://www.w3.org/2000/svg">
<path d="M6.65982 13.845C6.40482 13.5293 6.22073 13.1501 6.12991 12.7242L5.62255 10.345C5.51607 9.84568 5.16757 9.4143 4.69181 9.19291L2.44517 8.16316C1.36346 7.66735 0.759508 6.59547 0.912029 5.43305C1.06455 4.27063 1.91607 3.3789 3.09663 3.16472L11.9108 1.54661C12.8977 1.3629 13.902 1.73048 14.5267 2.5038C15.1515 3.27713 15.2862 4.31942 14.8773 5.21859L11.2481 13.2548C10.7603 14.3265 9.68351 14.9394 8.494 14.8182C7.74266 14.7421 7.09757 14.3868 6.65982 13.845ZM6.1041 9.03857C6.36335 9.35947 6.54319 9.73342 6.632 10.1352L7.13936 12.5144C7.31988 13.3756 8.0162 13.7511 8.60402 13.8085C9.19185 13.8659 9.94899 13.6465 10.3124 12.8425L13.9416 4.8063C14.1937 4.24273 14.1125 3.61253 13.7215 3.12854C13.3305 2.64456 12.7232 2.42252 12.1003 2.53783L3.28611 4.15594C2.40415 4.31817 2.00289 4.98893 1.93468 5.56389C1.86647 6.13886 2.07541 6.88391 2.88401 7.25785L5.13064 8.28761C5.5147 8.46033 5.84485 8.71766 6.1041 9.03857Z" fill="#76A8A2"/>
</svg>
