<svg width="12" height="12" viewBox="0 0 12 12" fill="none" xmlns="http://www.w3.org/2000/svg">
<path d="M11.0249 4.61612C10.9352 4.3294 10.6973 4.12094 10.4106 4.07743L7.50652 3.63768L6.20885 0.905204C5.95191 0.364932 5.1027 0.364932 4.84575 0.905204L3.54808 3.63768L0.650897 4.07743C0.365027 4.12094 0.127094 4.33013 0.0374025 4.61697C-0.052289 4.90297 0.0222401 5.21753 0.229732 5.42817L2.33101 7.56252L1.83531 10.5738C1.78668 10.8709 1.90378 11.1719 2.13786 11.3494C2.37276 11.526 2.68371 11.5491 2.93914 11.4088L5.52701 9.98675L8.12246 11.4088C8.2335 11.4699 8.35515 11.5 8.47598 11.5C8.63332 11.5 8.79066 11.4485 8.92374 11.3495C9.15794 11.1712 9.27492 10.871 9.22629 10.5739L8.73141 7.56264L10.8327 5.42829C11.0402 5.21826 11.1146 4.90297 11.0249 4.61612Z" fill="#F4A164"/>
</svg>
