<svg width="14" height="15" viewBox="0 0 14 15" fill="none" xmlns="http://www.w3.org/2000/svg">
<g clip-path="url(#clip0_4766_1994)">
<path d="M14 2.25V6.33333C14 6.65533 13.7392 6.91667 13.4167 6.91667C13.0941 6.91667 12.8333 6.65533 12.8333 6.33333V2.4915L5.95408 9.37075C5.84033 9.4845 5.691 9.54167 5.54167 9.54167C5.39233 9.54167 5.243 9.4845 5.12925 9.37075C4.90117 9.14267 4.90117 8.774 5.12925 8.54592L12.0085 1.66667H8.16667C7.84408 1.66667 7.58333 1.40533 7.58333 1.08333C7.58333 0.761333 7.84408 0.5 8.16667 0.5H12.25C13.2148 0.5 14 1.28517 14 2.25ZM13.4167 8.66667C13.0941 8.66667 12.8333 8.928 12.8333 9.25V11.5833C12.8333 12.5482 12.0482 13.3333 11.0833 13.3333H2.91667C1.95183 13.3333 1.16667 12.5482 1.16667 11.5833V3.41667C1.16667 2.45183 1.95183 1.66667 2.91667 1.66667H5.25C5.57258 1.66667 5.83333 1.40533 5.83333 1.08333C5.83333 0.761333 5.57258 0.5 5.25 0.5H2.91667C1.30842 0.5 0 1.80842 0 3.41667V11.5833C0 13.1916 1.30842 14.5 2.91667 14.5H11.0833C12.6916 14.5 14 13.1916 14 11.5833V9.25C14 8.928 13.7392 8.66667 13.4167 8.66667Z" fill="#5777F7"/>
</g>
<defs>
<clipPath id="clip0_4766_1994">
<rect width="14" height="14" fill="white" transform="translate(0 0.5)"/>
</clipPath>
</defs>
</svg>
