<svg width="21" height="24" viewBox="0 0 21 24" fill="none" xmlns="http://www.w3.org/2000/svg">
<path d="M11.7048 4.29224C11.7048 6.66268 9.78319 8.58448 7.41254 8.58448C5.0421 8.58448 3.1203 6.66273 3.1203 4.29224C3.1203 1.92174 5.04204 0 7.41254 0C9.78319 0 11.7048 1.92174 11.7048 4.29224Z" fill="white"/>
<path d="M13.754 11.3179C10.238 11.3179 7.41318 14.1727 7.41318 17.6587C7.41318 21.1447 10.2682 23.9995 13.754 23.9995C17.24 23.9995 20.0948 21.1447 20.0948 17.6587C20.0948 14.1727 17.2699 11.3179 13.754 11.3179ZM9.2163 14.9542C9.42677 14.5936 9.69717 14.2329 10.0277 13.9325C11.2599 12.7003 12.9727 12.1595 14.7459 12.4599C15.437 12.58 16.0981 12.8507 16.6692 13.2412C17.3603 13.6919 17.9013 14.2931 18.2918 14.9542C18.4119 15.1647 18.352 15.4651 18.1116 15.5854L17.9011 15.6755C16.8492 16.1564 15.6472 16.1564 14.5953 15.7055C14.3549 15.5854 14.0545 15.5253 13.7539 15.5253C13.4533 15.5253 13.1829 15.5854 12.9125 15.7055C11.8606 16.1562 10.6586 16.1562 9.60674 15.6755L9.39649 15.5852C9.18624 15.4651 9.09589 15.1645 9.21621 14.9542L9.2163 14.9542ZM12.9727 21.866L12.9125 22.3768C12.8826 22.6472 12.6119 22.8275 12.3717 22.7675C11.5004 22.5271 10.6587 22.0764 9.99779 21.4153C9.0061 20.4236 8.43507 19.1013 8.43507 17.6889C8.43507 17.3883 8.73567 17.178 9.0061 17.2682L9.87748 17.5086C10.7489 17.749 11.5304 18.2599 12.0712 18.9812L12.1011 19.0111C12.7323 19.7926 13.0629 20.8143 12.9727 21.866H12.9727ZM13.8141 18.7107C13.183 18.7407 12.6721 18.2299 12.7023 17.5989C12.7323 17.0581 13.153 16.6372 13.694 16.6072C14.3252 16.5772 14.836 17.0881 14.8058 17.719C14.8058 18.2599 14.3549 18.6806 13.8141 18.7107ZM17.4804 21.3853C16.8193 22.0464 16.0078 22.5273 15.1364 22.7375C14.866 22.7977 14.6255 22.6174 14.5956 22.3468L14.5656 21.836C14.4755 20.7841 14.806 19.7624 15.437 18.9509L15.467 18.921C16.0078 18.1997 16.7893 17.6888 17.6606 17.4484L18.5021 17.208C18.7725 17.1478 19.0429 17.3281 19.0429 17.6287C19.0431 19.0713 18.5021 20.3936 17.4804 21.3853Z" fill="white"/>
<path d="M13.6567 10.9344C12.9332 9.76375 11.9082 8.80314 10.6721 8.20288C9.79796 8.95327 8.65227 9.4034 7.41624 9.4034C6.18021 9.4034 5.03472 8.95325 4.16035 8.23279C1.77884 9.46348 0.120696 11.9247 0 14.8362V17.2976C0 18.2881 3.19554 19.0987 7.14486 19.1286C7.05443 18.6784 6.99408 18.1981 6.99408 17.7178C6.99429 13.996 9.97891 10.9943 13.6571 10.9343L13.6567 10.9344Z" fill="white"/>
</svg>
