<svg version="1.2" xmlns="http://www.w3.org/2000/svg" viewBox="0 0 240 116" width="240" height="116">
	<title>banner-upload-file-svg</title>
	<style>
		.s0 { fill: #fafafa } 
		.s1 { fill: none;stroke: #e5e5e5;stroke-dasharray: 4 } 
		.s2 { opacity: .4;fill: #292d32 } 
		.s3 { fill: #292d32 } 
		.s4 { fill: #0788ff } 
		.s5 { fill: #525252 } 
	</style>
	<path class="s0" d="m5-4.5h230c5.2 0 9.5 4.3 9.5 9.5v105c0 5.2-4.3 9.5-9.5 9.5h-230c-5.2 0-9.5-4.3-9.5-9.5v-105c0-5.2 4.3-9.5 9.5-9.5z"/>
	<path class="s1" d="m5-4.5h230c5.2 0 9.5 4.3 9.5 9.5v105c0 5.2-4.3 9.5-9.5 9.5h-230c-5.2 0-9.5-4.3-9.5-9.5v-105c0-5.2 4.3-9.5 9.5-9.5z"/>
	<g style="opacity: .4">
		<path class="s2" d="m132 34.9h-4.1c-3.3 0-6-2.7-6-6.1v-4c0-0.8-0.7-1.5-1.5-1.5h-6c-4.3 0-7.9 2.9-7.9 7.9v12.6c0 5 3.6 7.9 7.9 7.9h11.2c4.3 0 7.9-2.9 7.9-7.9v-7.4c0-0.8-0.7-1.5-1.5-1.5z"/>
		<path class="s3" d="m125.4 23.6c-0.6-0.5-1.6-0.2-1.6 0.7v4.9c0 2.1 1.8 3.8 3.9 3.8 1.3 0 3.2 0 4.8 0 0.8 0 1.2-1 0.7-1.5-2.1-2.1-5.7-5.8-7.8-7.9z"/>
		<path class="s3" d="m119.3 38.2l-2.8-2.9q0 0 0 0-0.2-0.1-0.3-0.2-0.1 0-0.1 0-0.1-0.1-0.3-0.1-0.1 0-0.1 0-0.2 0-0.3 0.1-0.1 0-0.1 0-0.2 0.1-0.3 0.2l-2.8 2.9c-0.4 0.4-0.4 1.1 0 1.5 0.4 0.4 1.1 0.4 1.5 0l1-1.1v6c0 0.6 0.5 1 1.1 1 0.5 0 1-0.4 1-1v-6l1 1.1q0.4 0.3 0.8 0.3 0.4 0 0.7-0.3c0.4-0.4 0.4-1.1 0-1.5z"/>
	</g>
	<path fill-rule="evenodd" class="s4" d="m87.6 72.2h-1.4q-0.1-0.4-0.3-0.6-0.1-0.3-0.4-0.5-0.2-0.2-0.5-0.3-0.4-0.1-0.7-0.1-0.7 0-1.2 0.3-0.5 0.3-0.8 1-0.3 0.6-0.3 1.5 0 0.9 0.3 1.5 0.3 0.7 0.8 1 0.5 0.3 1.2 0.3 0.3 0 0.6-0.1 0.4-0.1 0.6-0.3 0.3-0.2 0.4-0.4 0.2-0.3 0.3-0.7l1.4 0.1q0 0.5-0.3 1-0.3 0.5-0.7 0.9-0.5 0.4-1 0.6-0.6 0.2-1.3 0.2-1.1 0-1.9-0.5-0.9-0.5-1.3-1.4-0.5-0.9-0.5-2.2 0-1.3 0.5-2.2 0.4-0.9 1.3-1.4 0.8-0.5 1.9-0.5 0.6 0 1.2 0.2 0.6 0.2 1 0.5 0.5 0.4 0.8 0.9 0.2 0.5 0.3 1.2zm2.7-2.7v8h-1.4v-8zm1.5 8v-6h1.4v6zm0.7-6.9q-0.4 0-0.6-0.2-0.2-0.2-0.2-0.5 0-0.3 0.2-0.6 0.2-0.2 0.6-0.2 0.3 0 0.6 0.2 0.2 0.3 0.2 0.6 0 0.3-0.2 0.5-0.3 0.2-0.6 0.2zm4.8 7q-0.9 0-1.6-0.4-0.6-0.4-1-1.1-0.3-0.7-0.3-1.6 0-0.9 0.3-1.6 0.4-0.7 1-1.1 0.7-0.4 1.5-0.4 0.8 0 1.3 0.3 0.6 0.3 0.9 0.7 0.4 0.5 0.4 1.2h-1.3q-0.1-0.5-0.4-0.7-0.3-0.3-0.8-0.3-0.5 0-0.8 0.2-0.3 0.2-0.5 0.7-0.2 0.4-0.2 1 0 0.6 0.2 1.1 0.2 0.4 0.5 0.6 0.3 0.3 0.8 0.3 0.3 0 0.5-0.2 0.3-0.1 0.4-0.3 0.2-0.2 0.3-0.6h1.3q0 0.7-0.3 1.2-0.4 0.5-0.9 0.7-0.6 0.3-1.3 0.3zm5.2-3.7l2.2-2.4h1.6l-2.3 2.6 2.4 3.4h-1.6l-1.9-2.6-0.5 0.6v2h-1.4v-8h1.4v4.4zm10.5-2.4v1.1h-1.2v3.1q0 0.3 0.1 0.4 0.1 0.2 0.2 0.2 0.2 0.1 0.3 0.1 0.2 0 0.3 0 0.1 0 0.1-0.1l0.3 1.1q-0.1 0.1-0.3 0.1-0.2 0.1-0.5 0.1-0.6 0-1-0.2-0.4-0.2-0.7-0.5-0.2-0.4-0.2-1v-3.3h-0.9v-1.1h0.9v-1.4h1.4v1.4zm3.7 6.1q-0.9 0-1.5-0.4-0.6-0.4-1-1.1-0.3-0.6-0.3-1.6 0-0.9 0.3-1.6 0.4-0.7 1-1.1 0.6-0.4 1.5-0.4 0.9 0 1.6 0.4 0.6 0.4 0.9 1.1 0.4 0.7 0.4 1.6 0 1-0.4 1.6-0.3 0.7-0.9 1.1-0.7 0.4-1.6 0.4zm0-1.1q0.5 0 0.8-0.3 0.4-0.2 0.5-0.7 0.2-0.4 0.2-1 0-0.5-0.2-1-0.1-0.4-0.5-0.7-0.3-0.3-0.8-0.3-0.5 0-0.8 0.3-0.3 0.3-0.5 0.7-0.1 0.5-0.1 1 0 0.6 0.1 1 0.2 0.5 0.5 0.7 0.3 0.3 0.8 0.3zm10.7-1.5v-3.5h1.4v6h-1.4v-1.1h-0.1q-0.2 0.5-0.6 0.9-0.5 0.3-1.2 0.3-0.6 0-1-0.3-0.5-0.2-0.7-0.8-0.3-0.5-0.3-1.2v-3.8h1.4v3.6q0 0.6 0.4 0.9 0.3 0.3 0.8 0.3 0.3 0 0.6-0.1 0.3-0.2 0.5-0.5 0.2-0.3 0.2-0.7zm2.8 4.7v-8.2h1.4v1h0.1q0.1-0.2 0.3-0.5 0.2-0.2 0.5-0.4 0.4-0.2 0.9-0.2 0.7 0 1.3 0.4 0.5 0.3 0.9 1 0.3 0.7 0.3 1.7 0 1-0.3 1.7-0.4 0.7-0.9 1-0.6 0.4-1.3 0.4-0.5 0-0.8-0.2-0.4-0.1-0.6-0.4-0.2-0.2-0.3-0.4h-0.1v3.1zm1.4-5.2q0 0.6 0.2 1 0.2 0.5 0.5 0.7 0.3 0.2 0.7 0.2 0.5 0 0.8-0.2 0.3-0.3 0.5-0.7 0.2-0.4 0.2-1 0-0.6-0.2-1-0.2-0.4-0.5-0.7-0.3-0.2-0.8-0.2-0.4 0-0.7 0.2-0.4 0.3-0.5 0.7-0.2 0.4-0.2 1zm6.9-5v8h-1.4v-8zm4.1 8.1q-0.9 0-1.5-0.4-0.7-0.4-1-1.1-0.4-0.6-0.4-1.6 0-0.9 0.4-1.6 0.3-0.7 1-1.1 0.6-0.4 1.5-0.4 0.9 0 1.5 0.4 0.7 0.4 1 1.1 0.4 0.7 0.4 1.6 0 1-0.4 1.6-0.3 0.7-1 1.1-0.6 0.4-1.5 0.4zm0-1.1q0.5 0 0.8-0.3 0.3-0.2 0.5-0.7 0.1-0.4 0.1-1 0-0.5-0.1-1-0.2-0.4-0.5-0.7-0.3-0.3-0.8-0.3-0.5 0-0.8 0.3-0.3 0.3-0.5 0.7-0.2 0.5-0.2 1 0 0.6 0.2 1 0.2 0.5 0.5 0.7 0.3 0.3 0.8 0.3zm5.8 1.1q-0.6 0-1-0.2-0.5-0.2-0.8-0.6-0.2-0.4-0.2-1 0-0.5 0.2-0.8 0.2-0.4 0.5-0.6 0.3-0.2 0.7-0.3 0.4-0.1 0.9-0.1 0.5-0.1 0.8-0.1 0.3-0.1 0.5-0.1 0.1-0.1 0.1-0.3v-0.1q0-0.4-0.2-0.7-0.3-0.2-0.8-0.2-0.5 0-0.8 0.2-0.3 0.3-0.4 0.6l-1.3-0.2q0.1-0.6 0.5-0.9 0.3-0.4 0.9-0.6 0.5-0.2 1.1-0.2 0.4 0 0.9 0.1 0.4 0.1 0.8 0.4 0.3 0.2 0.5 0.6 0.3 0.4 0.3 1v4h-1.4v-0.8h-0.1q-0.1 0.2-0.3 0.4-0.2 0.3-0.6 0.4-0.3 0.1-0.8 0.1zm0.4-1q0.4 0 0.7-0.2 0.3-0.2 0.5-0.4 0.1-0.3 0.1-0.7v-0.7q0 0.1-0.2 0.1-0.1 0.1-0.3 0.1-0.2 0.1-0.4 0.1-0.2 0-0.4 0-0.3 0.1-0.5 0.2-0.3 0.1-0.4 0.2-0.2 0.2-0.2 0.5 0 0.4 0.3 0.6 0.3 0.2 0.8 0.2zm6.4 1q-0.7 0-1.3-0.4-0.5-0.3-0.8-1-0.4-0.7-0.4-1.7 0-1 0.4-1.7 0.3-0.7 0.9-1 0.5-0.4 1.2-0.4 0.5 0 0.9 0.2 0.3 0.2 0.5 0.4 0.2 0.3 0.3 0.5h0.1v-3h1.4v8h-1.4v-0.9h-0.1q-0.1 0.2-0.3 0.4-0.2 0.3-0.5 0.4-0.4 0.2-0.9 0.2zm0.4-1.2q0.4 0 0.8-0.2 0.3-0.2 0.4-0.7 0.2-0.4 0.2-1 0-0.6-0.2-1-0.1-0.4-0.4-0.7-0.3-0.2-0.8-0.2-0.5 0-0.8 0.2-0.3 0.3-0.5 0.7-0.1 0.4-0.1 1 0 0.6 0.1 1 0.2 0.4 0.5 0.7 0.3 0.2 0.8 0.2z"/>
	<path fill-rule="evenodd" class="s5" d="m78.8 92.6q-0.8 0-1.5-0.4-0.6-0.4-1-1.1-0.3-0.6-0.3-1.6 0-0.9 0.3-1.6 0.4-0.7 1-1.1 0.7-0.4 1.5-0.4 0.9 0 1.6 0.4 0.6 0.4 1 1.1 0.3 0.7 0.3 1.6 0 1-0.3 1.6-0.4 0.7-1 1.1-0.7 0.4-1.6 0.4zm0.1-1.1q0.4 0 0.7-0.3 0.4-0.2 0.5-0.7 0.2-0.4 0.2-1 0-0.5-0.2-1-0.1-0.4-0.5-0.7-0.3-0.3-0.7-0.3-0.5 0-0.9 0.3-0.3 0.3-0.4 0.7-0.2 0.5-0.2 1 0 0.6 0.2 1 0.1 0.5 0.4 0.7 0.4 0.3 0.9 0.3zm4 1v-6h1.4v1h0.1q0.1-0.5 0.5-0.8 0.4-0.3 0.9-0.3 0.2 0 0.3 0 0.1 0 0.2 0.1v1.3q0-0.1-0.2-0.1-0.2 0-0.4 0-0.4 0-0.7 0.1-0.3 0.2-0.5 0.5-0.2 0.3-0.2 0.7v3.5zm9.3 0.1q-0.7 0-1.2-0.4-0.6-0.3-0.9-1-0.3-0.7-0.3-1.7 0-1 0.3-1.7 0.3-0.7 0.9-1 0.6-0.4 1.3-0.4 0.5 0 0.8 0.2 0.4 0.2 0.6 0.4 0.2 0.3 0.3 0.5v-3h1.4v8h-1.3v-0.9h-0.1q-0.1 0.2-0.3 0.4-0.3 0.3-0.6 0.4-0.3 0.2-0.9 0.2zm0.4-1.2q0.5 0 0.8-0.2 0.3-0.2 0.5-0.7 0.2-0.4 0.2-1 0-0.6-0.2-1-0.2-0.4-0.5-0.7-0.3-0.2-0.8-0.2-0.4 0-0.7 0.2-0.4 0.3-0.5 0.7-0.2 0.4-0.2 1 0 0.6 0.2 1 0.1 0.4 0.5 0.7 0.3 0.2 0.7 0.2zm4.4 1.1v-6h1.3v1h0.1q0.1-0.5 0.5-0.8 0.5-0.3 1-0.3 0.1 0 0.2 0 0.2 0 0.3 0.1v1.3q-0.1-0.1-0.3-0.1-0.2 0-0.4 0-0.4 0-0.7 0.1-0.3 0.2-0.5 0.5-0.1 0.3-0.1 0.7v3.5zm5.9 0.1q-0.5 0-1-0.2-0.4-0.2-0.7-0.6-0.3-0.4-0.3-1 0-0.5 0.2-0.8 0.2-0.4 0.5-0.6 0.4-0.2 0.8-0.3 0.4-0.1 0.8-0.1 0.5-0.1 0.9-0.1 0.3-0.1 0.4-0.1 0.2-0.1 0.2-0.3v-0.1q0-0.4-0.3-0.7-0.2-0.2-0.7-0.2-0.5 0-0.8 0.2-0.3 0.3-0.4 0.6l-1.4-0.2q0.2-0.6 0.5-0.9 0.4-0.4 0.9-0.6 0.5-0.2 1.2-0.2 0.4 0 0.8 0.1 0.5 0.1 0.8 0.4 0.4 0.2 0.6 0.6 0.2 0.4 0.2 1v4h-1.3v-0.8h-0.1q-0.1 0.2-0.4 0.4-0.2 0.3-0.5 0.4-0.4 0.1-0.9 0.1zm0.4-1q0.4 0 0.8-0.2 0.3-0.2 0.4-0.4 0.2-0.3 0.2-0.7v-0.7q-0.1 0.1-0.2 0.1-0.2 0.1-0.4 0.1-0.2 0.1-0.4 0.1-0.2 0-0.3 0-0.3 0.1-0.6 0.2-0.2 0.1-0.4 0.2-0.1 0.2-0.1 0.5 0 0.4 0.3 0.6 0.3 0.2 0.7 0.2zm6.8 3.3q-0.7 0-1.3-0.2-0.5-0.2-0.8-0.6-0.4-0.3-0.5-0.7l1.3-0.3q0.1 0.1 0.2 0.3 0.2 0.2 0.5 0.3 0.2 0.1 0.7 0.1 0.6 0 1-0.3 0.4-0.3 0.4-0.9v-1.2h-0.1q-0.1 0.2-0.3 0.5-0.2 0.2-0.6 0.4-0.3 0.1-0.8 0.1-0.7 0-1.3-0.3-0.6-0.3-0.9-1-0.3-0.6-0.3-1.6 0-1 0.3-1.7 0.3-0.7 0.9-1 0.6-0.4 1.3-0.4 0.5 0 0.8 0.2 0.4 0.2 0.6 0.4 0.2 0.3 0.3 0.5h0.1v-1h1.4v6.1q0 0.8-0.4 1.3-0.4 0.5-1 0.7-0.6 0.3-1.5 0.3zm0.1-3.6q0.4 0 0.7-0.2 0.3-0.2 0.5-0.6 0.2-0.5 0.2-1 0-0.6-0.2-1-0.2-0.4-0.5-0.7-0.3-0.2-0.7-0.2-0.5 0-0.8 0.2-0.3 0.3-0.5 0.7-0.2 0.4-0.2 1 0 0.5 0.2 0.9 0.2 0.4 0.5 0.7 0.3 0.2 0.8 0.2zm8.7 1.3q-0.6 0-1.1-0.2-0.4-0.2-0.7-0.6-0.2-0.4-0.2-1 0-0.5 0.1-0.8 0.2-0.4 0.6-0.6 0.3-0.2 0.7-0.3 0.4-0.1 0.8-0.1 0.6-0.1 0.9-0.1 0.3-0.1 0.5-0.1 0.1-0.1 0.1-0.3v-0.1q0-0.4-0.2-0.7-0.3-0.2-0.8-0.2-0.5 0-0.8 0.2-0.3 0.3-0.4 0.6l-1.3-0.2q0.1-0.6 0.5-0.9 0.3-0.4 0.8-0.6 0.6-0.2 1.2-0.2 0.4 0 0.9 0.1 0.4 0.1 0.7 0.4 0.4 0.2 0.6 0.6 0.2 0.4 0.2 1v4h-1.3v-0.8h-0.1q-0.1 0.2-0.3 0.4-0.3 0.3-0.6 0.4-0.4 0.1-0.8 0.1zm0.3-1q0.5 0 0.8-0.2 0.3-0.2 0.5-0.4 0.1-0.3 0.1-0.7v-0.7q0 0.1-0.2 0.1-0.2 0.1-0.4 0.1-0.2 0.1-0.3 0.1-0.2 0-0.4 0-0.3 0.1-0.5 0.2-0.3 0.1-0.4 0.2-0.2 0.2-0.2 0.5 0 0.4 0.3 0.6 0.3 0.2 0.7 0.2zm5.7-2.6v3.5h-1.4v-6h1.3v1h0.1q0.2-0.5 0.6-0.8 0.5-0.3 1.2-0.3 0.6 0 1 0.3 0.5 0.3 0.8 0.8 0.2 0.5 0.2 1.2v3.8h-1.4v-3.6q0-0.6-0.3-0.9-0.3-0.4-0.9-0.4-0.3 0-0.6 0.2-0.3 0.1-0.5 0.4-0.1 0.4-0.1 0.8zm7.5 3.6q-0.7 0-1.3-0.4-0.5-0.3-0.9-1-0.3-0.7-0.3-1.7 0-1 0.3-1.7 0.4-0.7 0.9-1 0.6-0.4 1.3-0.4 0.5 0 0.9 0.2 0.3 0.2 0.5 0.4 0.2 0.3 0.3 0.5h0.1v-3h1.4v8h-1.4v-0.9h-0.1q-0.1 0.2-0.3 0.4-0.2 0.3-0.6 0.4-0.3 0.2-0.8 0.2zm0.4-1.2q0.4 0 0.7-0.2 0.4-0.2 0.5-0.7 0.2-0.4 0.2-1 0-0.6-0.2-1-0.1-0.4-0.5-0.7-0.3-0.2-0.7-0.2-0.5 0-0.8 0.2-0.3 0.3-0.5 0.7-0.1 0.4-0.1 1 0 0.6 0.1 1 0.2 0.4 0.5 0.7 0.3 0.2 0.8 0.2zm9.2 1.2q-0.7 0-1.2-0.4-0.6-0.3-0.9-1-0.3-0.7-0.3-1.7 0-1 0.3-1.7 0.3-0.7 0.9-1 0.6-0.4 1.2-0.4 0.6 0 0.9 0.2 0.4 0.2 0.6 0.4 0.2 0.3 0.3 0.5v-3h1.4v8h-1.4v-0.9q-0.1 0.2-0.4 0.4-0.2 0.3-0.5 0.4-0.3 0.2-0.9 0.2zm0.4-1.2q0.5 0 0.8-0.2 0.3-0.2 0.5-0.7 0.1-0.4 0.1-1 0-0.6-0.1-1-0.2-0.4-0.5-0.7-0.3-0.2-0.8-0.2-0.4 0-0.8 0.2-0.3 0.3-0.4 0.7-0.2 0.4-0.2 1 0 0.6 0.2 1 0.1 0.4 0.5 0.7 0.3 0.2 0.7 0.2zm4.3 1.1v-6h1.4v1h0.1q0.1-0.5 0.5-0.8 0.4-0.3 1-0.3 0.1 0 0.2 0 0.2 0 0.3 0.1v1.3q-0.1-0.1-0.3-0.1-0.2 0-0.4 0-0.4 0-0.7 0.1-0.3 0.2-0.5 0.5-0.1 0.3-0.1 0.7v3.5zm6.7 0.1q-0.9 0-1.5-0.4-0.7-0.4-1-1.1-0.4-0.6-0.4-1.6 0-0.9 0.4-1.6 0.3-0.7 1-1.1 0.6-0.4 1.5-0.4 0.9 0 1.5 0.4 0.7 0.4 1 1.1 0.4 0.7 0.4 1.6 0 1-0.4 1.6-0.3 0.7-1 1.1-0.6 0.4-1.5 0.4zm0-1.1q0.5 0 0.8-0.3 0.3-0.2 0.5-0.7 0.1-0.4 0.1-1 0-0.5-0.1-1-0.2-0.4-0.5-0.7-0.3-0.3-0.8-0.3-0.5 0-0.8 0.3-0.3 0.3-0.5 0.7-0.2 0.5-0.2 1 0 0.6 0.2 1 0.2 0.5 0.5 0.7 0.3 0.3 0.8 0.3zm4.1 3.3v-8.3h1.4v1q0.1-0.2 0.3-0.5 0.2-0.2 0.6-0.4 0.3-0.2 0.9-0.2 0.6 0 1.2 0.4 0.6 0.3 0.9 1 0.3 0.7 0.3 1.7 0 1-0.3 1.7-0.3 0.7-0.9 1-0.5 0.4-1.2 0.4-0.6 0-0.9-0.2-0.3-0.1-0.5-0.4-0.2-0.2-0.4-0.4v3.2zm1.4-5.3q0 0.6 0.1 1 0.2 0.5 0.5 0.7 0.3 0.2 0.8 0.2 0.4 0 0.8-0.2 0.3-0.3 0.4-0.7 0.2-0.4 0.2-1 0-0.6-0.2-1-0.1-0.4-0.4-0.7-0.4-0.2-0.8-0.2-0.5 0-0.8 0.2-0.3 0.3-0.5 0.7-0.1 0.4-0.1 1z"/>
</svg>