<svg width="20" height="20" viewBox="0 0 20 20" fill="none" xmlns="http://www.w3.org/2000/svg">
<path d="M17.5749 5.81823C16.8665 5.0349 15.6832 4.64323 13.9665 4.64323H13.7665V4.6099C13.7665 3.2099 13.7665 1.47656 10.6332 1.47656H9.36653C6.2332 1.47656 6.2332 3.21823 6.2332 4.6099V4.65156H6.0332C4.3082 4.65156 3.1332 5.04323 2.42487 5.82656C1.59987 6.74323 1.62487 7.97656 1.7082 8.81823L1.71654 8.87656L1.77732 9.51484C1.79159 9.66462 1.87234 9.8 1.99834 9.88222C2.20039 10.0141 2.51013 10.2128 2.69987 10.3182C2.81654 10.3932 2.94154 10.4599 3.06654 10.5266C4.49154 11.3099 6.0582 11.8349 7.64987 12.0932C7.72487 12.8766 8.06653 13.7932 9.89153 13.7932C11.7165 13.7932 12.0749 12.8849 12.1332 12.0766C13.8332 11.8016 15.4749 11.2099 16.9582 10.3432C17.0082 10.3182 17.0415 10.2932 17.0832 10.2682C17.4034 10.0872 17.7352 9.86556 18.0398 9.64689C18.153 9.56561 18.2253 9.43948 18.2407 9.30097L18.2499 9.21823L18.2915 8.82656C18.2999 8.77656 18.2999 8.7349 18.3082 8.67656C18.3749 7.8349 18.3582 6.6849 17.5749 5.81823ZM10.9082 11.5266C10.9082 12.4099 10.9082 12.5432 9.8832 12.5432C8.8582 12.5432 8.8582 12.3849 8.8582 11.5349V10.4849H10.9082V11.5266ZM7.42487 4.64323V4.6099C7.42487 3.19323 7.42487 2.66823 9.36653 2.66823H10.6332C12.5749 2.66823 12.5749 3.20156 12.5749 4.6099V4.65156H7.42487V4.64323Z" fill="currentColor"/>
<path d="M17.2599 11.511C17.614 11.3437 18.0212 11.6242 17.9858 12.0142L17.7002 15.1602C17.5252 16.8269 16.8419 18.5269 13.1752 18.5269H6.82519C3.15853 18.5269 2.4752 16.8269 2.3002 15.1686L2.02948 12.1907C1.99444 11.8053 2.39276 11.5252 2.7458 11.6839C3.705 12.115 5.317 12.8083 6.35299 13.0873C6.517 13.1315 6.65014 13.2495 6.72454 13.4022C7.23875 14.4575 8.32794 15.0186 9.89186 15.0186C11.4404 15.0186 12.5429 14.4359 13.059 13.3774C13.1335 13.2246 13.2666 13.1067 13.4307 13.0622C14.5325 12.7637 16.2538 11.9865 17.2599 11.511Z" fill="currentColor"/>
</svg>
