<svg xmlns="http://www.w3.org/2000/svg" width="59" height="58"
                                    viewBox="0 0 59 58" fill="none">
                                    <g clip-path="url(#clip0_4766_2638)">
                                        <path
                                            d="M34.9448 47.3502H31.0781V43.4408C31.0781 42.9504 30.6806 42.553 30.1903 42.553C29.7 42.553 29.3025 42.9504 29.3025 43.4408V47.6203C29.3025 48.4504 29.9604 49.1258 30.7689 49.1258H34.9448C35.4351 49.1258 35.8326 48.7284 35.8326 48.238C35.8326 47.7477 35.4352 47.3502 34.9448 47.3502Z"
                                            fill="#A3A3A3" />
                                        <path
                                            d="M14.1404 16.5911C12.2451 16.5911 10.7031 18.1371 10.7031 20.0375C10.7031 21.9379 12.2451 23.4838 14.1404 23.4838C16.0357 23.4838 17.5777 21.9378 17.5777 20.0375C17.5777 18.1372 16.0357 16.5911 14.1404 16.5911ZM14.1404 21.7084C13.2241 21.7084 12.4787 20.9589 12.4787 20.0375C12.4787 19.1161 13.2242 18.3666 14.1404 18.3666C15.0566 18.3666 15.8021 19.1161 15.8021 20.0375C15.8021 20.9589 15.0566 21.7084 14.1404 21.7084Z"
                                            fill="#A3A3A3" />
                                        <path
                                            d="M24.3385 16.5911C22.4431 16.5911 20.9011 18.1371 20.9011 20.0375C20.9011 21.9379 22.4431 23.4838 24.3385 23.4838C26.2338 23.4838 27.7758 21.9378 27.7758 20.0375C27.7758 18.1372 26.2339 16.5911 24.3385 16.5911ZM24.3385 21.7084C23.4221 21.7084 22.6767 20.9589 22.6767 20.0375C22.6767 19.1161 23.4222 18.3666 24.3385 18.3666C25.2549 18.3666 26.0002 19.1161 26.0002 20.0375C26.0005 20.9588 25.255 21.7084 24.3385 21.7084Z"
                                            fill="#A3A3A3" />
                                        <path
                                            d="M34.5367 16.5911C32.6413 16.5911 31.0994 18.1371 31.0994 20.0375C31.0994 21.9379 32.6413 23.4838 34.5367 23.4838C36.4318 23.4838 37.9737 21.9378 37.9737 20.0375C37.9737 18.1372 36.4318 16.5911 34.5367 16.5911ZM34.5367 21.7084C33.6203 21.7084 32.8749 20.9589 32.8749 20.0375C32.8749 19.1161 33.6204 18.3666 34.5367 18.3666C35.4529 18.3666 36.1981 19.1161 36.1981 20.0375C36.1983 20.9588 35.4529 21.7084 34.5367 21.7084Z"
                                            fill="#A3A3A3" />
                                        <path
                                            d="M53.4824 27.4519H48.1769V8.53267C48.1769 4.6366 45.0333 1.467 41.169 1.467H7.5079C3.64366 1.467 0.5 4.6366 0.5 8.53267V30.9281C0.5 34.8243 3.64366 37.9939 7.5079 37.9939H7.71464L10.374 42.6436C10.804 43.3957 11.6072 43.8632 12.4698 43.8632C13.3324 43.8632 14.1354 43.3959 14.5654 42.6437L17.225 37.9939H25.7515V47.6202C25.7515 50.4085 28.0024 52.6767 30.7689 52.6767H46.6113L48.2631 55.5648C48.6048 56.162 49.2426 56.5329 49.9279 56.5329C50.6131 56.5329 51.251 56.1619 51.5926 55.5648L53.2443 52.6767H53.4824C56.249 52.6767 58.4999 50.4085 58.4999 47.6202V32.5085C58.4999 29.7203 56.249 27.4519 53.4824 27.4519ZM16.7101 36.2184C16.3915 36.2184 16.0976 36.389 15.9395 36.6655L13.0241 41.7624C12.9094 41.963 12.6971 42.0876 12.47 42.0876C12.2427 42.0876 12.0303 41.963 11.9156 41.7623L9.00038 36.6655C8.84224 36.389 8.54816 36.2184 8.22984 36.2184H7.50802C4.62286 36.2184 2.27557 33.8453 2.27557 30.9281V8.53267C2.27557 5.6158 4.62275 3.24245 7.50802 3.24245H41.169C44.0542 3.24245 46.4015 5.61569 46.4015 8.53267V30.9281C46.4015 33.8453 44.0543 36.2184 41.169 36.2184H16.7101ZM56.7244 47.6203C56.7244 49.4294 55.27 50.9014 53.4824 50.9014H52.7294C52.4109 50.9014 52.1168 51.072 51.9587 51.3483L50.0514 54.6835C49.9991 54.7748 49.8564 54.7748 49.8043 54.6835L47.8969 51.3483C47.7388 51.0719 47.4447 50.9014 47.1262 50.9014H30.7689C28.9813 50.9014 27.5269 49.4296 27.5269 47.6203V37.994H41.1689C45.0332 37.994 48.1768 34.8244 48.1768 30.9282V29.2275H53.4823C55.2699 29.2275 56.7243 30.6994 56.7243 32.5087V47.6203H56.7244Z"
                                            fill="#A3A3A3" />
                                    </g>
                                    <defs>
                                        <clipPath id="clip0_4766_2638">
                                            <rect width="58" height="58" fill="white"
                                                transform="translate(0.5)" />
                                        </clipPath>
                                    </defs>
                                </svg>