<svg width="32" height="32" viewBox="0 0 32 32" fill="none" xmlns="http://www.w3.org/2000/svg">
<rect width="32" height="32" rx="16" fill="#FF4949"/>
<g opacity="0.8">
<path d="M21.7715 8.45413L8.45997 21.7656C7.97025 22.2553 7.97025 23.0493 8.45997 23.5391L8.46129 23.5404C8.95101 24.0301 9.74502 24.0301 10.2348 23.5404L23.5462 10.2289C24.036 9.73918 24.036 8.94517 23.5462 8.45544L23.5449 8.45413C23.0552 7.9644 22.2612 7.9644 21.7715 8.45413Z" fill="white"/>
<path d="M8.46097 10.2393L21.7724 23.5508C22.2622 24.0405 23.0562 24.0405 23.5459 23.5508L23.5472 23.5495C24.037 23.0597 24.037 22.2657 23.5472 21.776L10.2357 8.46451C9.74601 7.97478 8.95201 7.97478 8.46228 8.46451L8.46097 8.46582C7.97124 8.95555 7.97124 9.74956 8.46097 10.2393Z" fill="white"/>
</g>
</svg>
