<svg width="48" height="48" viewBox="0 0 48 48" fill="none" xmlns="http://www.w3.org/2000/svg">
<g clip-path="url(#clip0_5163_779)">
<path d="M24 24C30.618 24 36 18.618 36 12C36 5.382 30.618 0 24 0C17.382 0 12 5.382 12 12C12 18.618 17.382 24 24 24ZM24 2C29.514 2 34 6.486 34 12C34 17.514 29.514 22 24 22C18.486 22 14 17.514 14 12C14 6.486 18.486 2 24 2ZM45 48H42.872L39.072 34.526C37.974 30.684 34.414 28 30.418 28H17.584C13.588 28 10.028 30.684 8.93001 34.528L5.13001 48H3.00201L7.00801 33.978C8.35001 29.28 12.7 26 17.586 26H30.42C35.304 26 39.654 29.28 40.998 33.978L45.004 48H45Z" fill="#A3A3A3"/>
</g>
<defs>
<clipPath id="clip0_5163_779">
<rect width="48" height="48" fill="white"/>
</clipPath>
</defs>
</svg>
