<svg width="24" height="24" viewBox="0 0 24 24" fill="none" xmlns="http://www.w3.org/2000/svg">
<g clip-path="url(#clip0_6534_5503)">
<path d="M19.7545 16.2168C20.1078 16.0972 20.4748 16.0364 20.8444 16.0364C22.0228 16.0364 23.0939 16.6439 23.7071 17.6072C24.0721 17.5898 24.1656 17.3761 23.5792 16.6121C22.6337 15.38 21.3186 15.1411 20.3937 15.1536C20.3356 14.9971 20.2755 14.8336 20.213 14.6608C19.6462 13.0935 18.3733 12.347 17.6241 12.0313L16.9019 9.92499C16.8582 9.79817 16.766 9.696 16.6444 9.64005C16.5226 9.58375 16.3852 9.58008 16.2606 9.62962L14.9094 10.1649C15.0467 10.223 15.1677 10.3153 15.2607 10.4368C15.3866 10.601 15.4485 10.8 15.4395 11.0043L16.1445 10.7249L18.3427 17.1362C18.7236 16.7196 19.2051 16.4031 19.7545 16.2168Z" fill="white"/>
<path d="M6.68304 6.53534H0.520572C0.233143 6.53534 0 6.76848 0 7.05615V13.1317C0 13.4194 0.233143 13.6524 0.520572 13.6524H6.68304C6.97071 13.6524 7.20373 13.4194 7.20373 13.1317V7.05615C7.20373 6.76848 6.97071 6.53534 6.68304 6.53534Z" fill="white"/>
<path d="M9.14674 18.4983C8.63115 16.9779 6.98101 16.1633 5.46043 16.6789C3.93996 17.1942 3.12556 18.8447 3.64103 20.365C4.15651 21.8853 5.80664 22.6999 7.32723 22.1846C8.84758 21.669 9.66222 20.0186 9.14674 18.4983ZM6.76257 20.5192C6.16199 20.7229 5.50997 20.4008 5.30622 19.8004C5.10271 19.1997 5.42451 18.5476 6.02497 18.3441C6.62567 18.1404 7.27769 18.4625 7.48132 19.0628C7.68495 19.6635 7.36326 20.3155 6.76257 20.5192Z" fill="white"/>
<path d="M17.847 10.3798C17.847 11.2016 18.5131 11.8677 19.3349 11.8677C20.1566 11.8677 20.1566 8.89191 19.3349 8.89191C18.5131 8.89191 17.847 9.55791 17.847 10.3798Z" fill="white"/>
<path d="M18.0916 20.365C18.607 21.8853 20.2574 22.6999 21.7778 22.1846C23.2983 21.669 24.1128 20.0186 23.5974 18.4981C23.082 16.9778 21.4316 16.1632 19.9112 16.6788C18.3909 17.1942 17.5762 18.8447 18.0916 20.365ZM21.2134 20.5192C20.6126 20.7229 19.9606 20.4008 19.757 19.8004C19.5536 19.1997 19.8751 18.5476 20.4757 18.3441C21.0764 18.1404 21.7284 18.4625 21.9321 19.0628C22.1358 19.6635 21.814 20.3155 21.2134 20.5192Z" fill="white"/>
<path d="M10.7591 15.6363V14.563C10.7591 14.3476 10.5846 14.1727 10.3689 14.1727H2.41713C2.20164 14.1727 2.02693 14.3477 2.02693 14.563V15.6363C2.02693 15.8518 2.20164 16.0265 2.41713 16.0265H2.46027C2.03642 17.0665 1.38226 18.8694 1.38226 20.092H3.06452C2.91814 19.3619 3.01474 18.6081 3.34982 17.9293C3.75151 17.1162 4.44525 16.5078 5.30386 16.217C5.65742 16.0969 6.02403 16.0366 6.39419 16.0366C7.84947 16.0366 9.14118 16.9629 9.60877 18.3419C9.80671 18.9259 9.83516 19.5268 9.72196 20.0921H10.4074H12.0174H17.5154C17.4375 19.7036 17.4285 19.3085 17.4878 18.9214H11.2667C10.7289 17.8364 10.5438 16.7287 10.4826 16.0079C10.6423 15.9588 10.7591 15.8121 10.7591 15.6363Z" fill="white"/>
<path d="M14.4538 11.8319C13.8454 11.7514 13.305 11.6139 12.8216 11.4391H10.6801C10.6811 11.039 10.7144 10.6321 10.7648 10.2317C9.47447 9.08843 9.09637 7.76768 9.07207 7.67843C8.94631 7.21416 9.22165 6.73412 9.6858 6.60836C9.76048 6.5881 9.83728 6.57778 9.91409 6.57778C10.3049 6.57778 10.6505 6.84091 10.7546 7.21759C10.765 7.2541 10.8694 7.60067 11.1574 8.04397C11.1648 8.0071 11.1724 7.96941 11.1795 7.9335C11.4225 7.09065 11.1046 6.08186 10.3818 5.90182C9.65878 5.72154 8.61088 6.11422 8.18454 7.35414C7.60826 9.06247 7.4844 10.1744 7.70332 12.0556C7.94535 13.3008 8.74553 13.5254 9.47364 13.5475C9.5156 13.5525 9.55791 13.556 9.60129 13.556H12.4416L11.5364 17.2346C11.3966 17.8023 11.7437 18.3756 12.3113 18.5154C12.3963 18.5362 12.4813 18.5463 12.5651 18.5463C13.041 18.5463 13.4733 18.2232 13.5921 17.7404L14.8199 12.7503C14.8977 12.4345 14.8259 12.1004 14.6252 11.8444C14.6232 11.8418 14.6207 11.8396 14.6187 11.837C14.6022 11.8379 14.5858 11.8393 14.5691 11.8393C14.5307 11.8394 14.492 11.837 14.4538 11.8319Z" fill="white"/>
<path d="M15.2399 11.056C15.2891 10.6852 15.0281 10.3446 14.6572 10.2956C11.3461 9.85726 10.5995 7.38347 10.5669 7.26957C10.4677 6.91055 10.0965 6.69886 9.73689 6.79629C9.37574 6.89419 9.16239 7.26625 9.26018 7.6274C9.29834 7.76798 10.2423 11.0779 14.4795 11.6387C14.5098 11.6428 14.5396 11.6446 14.5693 11.6446C14.9037 11.6446 15.1948 11.3968 15.2399 11.056Z" fill="white"/>
<path d="M13.1417 4.60427L13.8172 5.01592C13.8863 4.88044 13.9423 4.73596 13.9783 4.58116C14.0502 4.27216 14.0413 3.96352 13.9674 3.67609H13.1417V4.60427Z" fill="white"/>
<path d="M11.6911 6.00432C11.9561 6.06607 12.2208 6.06821 12.472 6.02115L10.3235 4.76855C10.5302 5.36712 11.0287 5.85023 11.6911 6.00432Z" fill="white"/>
<path d="M12.0872 1.66077C10.2767 1.66077 9.9256 2.38129 9.9256 4.32099L13.8237 6.5934L14.1379 5.42958L12.9553 4.70893V3.48964H15.0246C15.0248 3.48964 13.8978 1.66077 12.0872 1.66077Z" fill="white"/>
</g>
<defs>
<clipPath id="clip0_6534_5503">
<rect width="24" height="24" fill="white"/>
</clipPath>
</defs>
</svg>
