<svg width="34" height="34" viewBox="0 0 34 34" fill="none" xmlns="http://www.w3.org/2000/svg">
    <g opacity="0.4">
        <path opacity="0.4" d="M29.042 14.4358H24.9478C21.5903 14.4358 18.8562 11.7016 18.8562 8.34408V4.24992C18.8562 3.47075 18.2187 2.83325 17.4395 2.83325H11.4328C7.06949 2.83325 3.54199 5.66659 3.54199 10.7241V23.2758C3.54199 28.3333 7.06949 31.1666 11.4328 31.1666H22.5678C26.9312 31.1666 30.4587 28.3333 30.4587 23.2758V15.8524C30.4587 15.0733 29.8212 14.4358 29.042 14.4358Z" fill="currentColor"/>
        <path d="M22.3835 3.13078C21.8027 2.54995 20.7969 2.94662 20.7969 3.75412V8.69828C20.7969 10.7666 22.5535 12.4808 24.6927 12.4808C26.0385 12.4949 27.9085 12.4949 29.5094 12.4949C30.3169 12.4949 30.7419 11.5458 30.1752 10.9791C28.1352 8.92495 24.4802 5.22745 22.3835 3.13078Z" fill="currentColor"/>
        <path d="M16.3339 17.6658L13.5005 14.8324C13.4864 14.8183 13.4722 14.8183 13.4722 14.8041C13.3872 14.7191 13.2739 14.6483 13.1605 14.5916C13.1464 14.5916 13.1464 14.5916 13.1322 14.5916C13.0189 14.5491 12.9055 14.5349 12.7922 14.5208C12.7497 14.5208 12.7214 14.5208 12.6789 14.5208C12.5939 14.5208 12.4947 14.5491 12.4097 14.5774C12.3672 14.5916 12.3389 14.6058 12.3105 14.6199C12.1972 14.6766 12.0839 14.7333 11.9989 14.8324L9.16555 17.6658C8.75471 18.0766 8.75471 18.7566 9.16555 19.1674C9.57638 19.5783 10.2564 19.5783 10.6672 19.1674L11.6872 18.1474V24.0833C11.6872 24.6641 12.1689 25.1458 12.7497 25.1458C13.3305 25.1458 13.8122 24.6641 13.8122 24.0833V18.1474L14.8322 19.1674C15.0447 19.3799 15.3139 19.4791 15.583 19.4791C15.8522 19.4791 16.1214 19.3799 16.3339 19.1674C16.7447 18.7566 16.7447 18.0766 16.3339 17.6658Z" fill="currentColor"/>
    </g>
</svg>
