<svg width="43" height="48" viewBox="0 0 43 48" fill="none" xmlns="http://www.w3.org/2000/svg">
<path d="M21.5 24C28.118 24 33.5 18.618 33.5 12C33.5 5.382 28.118 0 21.5 0C14.882 0 9.49995 5.382 9.49995 12C9.49995 18.618 14.882 24 21.5 24ZM21.5 2C27.014 2 31.5 6.486 31.5 12C31.5 17.514 27.014 22 21.5 22C15.986 22 11.5 17.514 11.5 12C11.5 6.486 15.986 2 21.5 2ZM21.5 36C14.882 36 9.49995 41.382 9.49995 48H11.5C11.5 45.604 12.382 43.432 13.792 41.708L18.066 45.982C17.714 46.576 17.5 47.262 17.5 48.002H19.5C19.5 46.9 20.398 46.002 21.5 46.002C22.602 46.002 23.5 46.9 23.5 48.002H25.5C25.5 47.262 25.284 46.578 24.934 45.982L29.208 41.708C30.618 43.432 31.5 45.604 31.5 48H33.5C33.5 41.382 28.118 36 21.5 36ZM19.48 44.566L15.206 40.292C16.93 38.882 19.102 38 21.498 38C23.894 38 26.066 38.882 27.79 40.292L23.516 44.566C22.922 44.214 22.236 44 21.496 44C20.756 44 20.072 44.216 19.476 44.566H19.48ZM42.5 48H40.372L36.572 34.526C35.474 30.684 31.914 28 27.918 28H15.084C11.088 28 7.52795 30.684 6.42995 34.528L2.62995 48H0.501953L4.50795 33.978C5.84995 29.28 10.2 26 15.086 26H27.92C32.804 26 37.154 29.28 38.498 33.978L42.504 48H42.5Z" fill="#A3A3A3"/>
</svg>
