<svg width="32" height="32" viewBox="0 0 32 32" fill="none" xmlns="http://www.w3.org/2000/svg">
<rect x="0.5" y="0.5" width="31" height="31" rx="15.5" fill="white"/>
<rect x="0.5" y="0.5" width="31" height="31" rx="15.5" fill="currentColor" fill-opacity="0.05"/>
<rect x="0.5" y="0.5" width="31" height="31" rx="15.5" stroke="currentColor"/>
<path d="M10.9457 21.7175C10.8532 21.7173 10.7617 21.6979 10.6772 21.6605C10.5926 21.6231 10.5167 21.5685 10.4543 21.5001C10.3909 21.4324 10.3425 21.352 10.3122 21.2642C10.282 21.1764 10.2707 21.0833 10.279 20.9908L10.4423 19.1948L17.9877 11.6521L20.3457 14.0095L12.8023 21.5515L11.0063 21.7148C10.9862 21.7167 10.9659 21.7176 10.9457 21.7175ZM20.8163 13.5381L18.459 11.1808L19.873 9.76681C19.9349 9.70483 20.0085 9.65566 20.0894 9.62211C20.1703 9.58856 20.2571 9.57129 20.3447 9.57129C20.4323 9.57129 20.519 9.58856 20.6 9.62211C20.6809 9.65566 20.7544 9.70483 20.8163 9.76681L22.2303 11.1808C22.2923 11.2427 22.3415 11.3163 22.3751 11.3972C22.4086 11.4781 22.4259 11.5649 22.4259 11.6525C22.4259 11.7401 22.4086 11.8268 22.3751 11.9078C22.3415 11.9887 22.2923 12.0622 22.2303 12.1241L20.817 13.5375L20.8163 13.5381Z" fill="currentColor"/>
</svg>
