<svg width="20" height="20" viewBox="0 0 20 20" fill="none" xmlns="http://www.w3.org/2000/svg">
<path d="M4.66675 2H6.66682C8.13962 2 9.33356 3.19395 9.33356 4.66675V6.66682C9.33356 8.13962 8.13962 9.33356 6.66682 9.33356H4.66675C3.19395 9.3336 2 8.13965 2 6.66682V4.66675C2 3.19395 3.19395 2 4.66675 2Z" fill="currentColor"/>
<path d="M13.3347 2H15.3348C16.8076 2 18.0015 3.19395 18.0015 4.66675V6.66682C18.0015 8.13962 16.8076 9.33356 15.3348 9.33356H13.3347C11.8619 9.33356 10.668 8.13962 10.668 6.66682V4.66675C10.6679 3.19395 11.8619 2 13.3347 2Z" fill="currentColor"/>
<path d="M4.66675 10.668H6.66682C8.13962 10.668 9.33356 11.8619 9.33356 13.3347V15.3348C9.33356 16.8076 8.13962 18.0015 6.66682 18.0015H4.66675C3.19395 18.0016 2 16.8076 2 15.3348V13.3347C2 11.8619 3.19395 10.668 4.66675 10.668Z" fill="currentColor"/>
<path d="M13.3347 10.668H15.3348C16.8076 10.668 18.0015 11.8619 18.0015 13.3347V15.3348C18.0015 16.8076 16.8076 18.0016 15.3348 18.0016H13.3347C11.8619 18.0016 10.668 16.8076 10.668 15.3348V13.3347C10.6679 11.8619 11.8619 10.668 13.3347 10.668Z" fill="currentColor"/>
</svg>
