<svg width="20" height="20" viewBox="0 0 20 20" xmlns="http://www.w3.org/2000/svg">
        <path d="M16 9.60843C16 10.1584 16.45 10.6084 17 10.6084H19C19.55 10.6084 20 10.1584 20 9.60843C20 9.05843 19.55 8.60843 19 8.60843H17C16.45 8.60843 16 9.05843 16 9.60843ZM14.59 14.4284C14.5115 14.5309 14.4543 14.648 14.4218 14.7729C14.3893 14.8978 14.3822 15.0279 14.4008 15.1556C14.4195 15.2834 14.4635 15.406 14.5303 15.5164C14.5972 15.6268 14.6855 15.7227 14.79 15.7984C15.32 16.1884 15.88 16.6084 16.41 17.0084C16.85 17.3384 17.47 17.2484 17.79 16.8084C17.79 16.7984 17.8 16.7984 17.8 16.7884C17.8785 16.6851 17.9357 16.5671 17.9681 16.4415C18.0006 16.3158 18.0077 16.185 17.9891 16.0565C17.9705 15.9281 17.9265 15.8046 17.8597 15.6934C17.7929 15.5821 17.7046 15.4852 17.6 15.4084C17.07 15.0084 16.51 14.5884 15.99 14.1984C15.885 14.1208 15.7657 14.0647 15.639 14.0332C15.5122 14.0018 15.3806 13.9956 15.2514 14.0151C15.1223 14.0346 14.9983 14.0794 14.8866 14.1469C14.7748 14.2144 14.6774 14.3033 14.6 14.4084C14.6 14.4184 14.59 14.4284 14.59 14.4284ZM17.81 2.41843C17.81 2.40843 17.8 2.40843 17.8 2.39843C17.723 2.29403 17.6261 2.20595 17.5148 2.13929C17.4035 2.07264 17.2801 2.02874 17.1518 2.01013C17.0234 1.99153 16.8926 1.99859 16.767 2.03092C16.6414 2.06324 16.5234 2.12017 16.42 2.19843C15.89 2.59843 15.32 3.01843 14.8 3.41843C14.36 3.74843 14.28 4.36843 14.61 4.79843C14.61 4.80843 14.62 4.80843 14.62 4.81843C14.95 5.25843 15.56 5.34843 16 5.01843C16.53 4.62843 17.09 4.19843 17.62 3.79843C18.05 3.47843 18.13 2.85843 17.81 2.41843ZM6 6.60843H2C0.9 6.60843 0 7.50843 0 8.60843V10.6084C0 11.7084 0.9 12.6084 2 12.6084H3V15.6084C3 16.1584 3.45 16.6084 4 16.6084C4.55 16.6084 5 16.1584 5 15.6084V12.6084H6L11 15.6084V3.60843L6 6.60843ZM13.5 9.60843C13.5 8.27843 12.92 7.07843 12 6.25843V12.9484C12.92 12.1384 13.5 10.9384 13.5 9.60843Z" fill="currentColor"/>
    </svg>