<svg width="18" height="17" viewBox="0 0 18 17" fill="none" xmlns="http://www.w3.org/2000/svg">
<path d="M2.19854 3.88338C4.64854 0.620046 9.72354 -0.329121 13.3352 1.91671C16.9019 4.13338 18.2135 8.39755 16.7519 12.3975C15.3727 16.175 11.7385 17.6709 9.11937 15.7709C8.13854 15.0592 7.75771 14.1667 7.57437 12.7175L7.48604 11.895L7.44854 11.5634C7.34604 10.785 7.18937 10.4367 6.86104 10.2534C6.41521 10.005 6.11771 9.99921 5.53187 10.2259L5.23937 10.3475L5.09021 10.4125C4.24521 10.7792 3.68354 10.9084 2.97271 10.7592L2.80604 10.72L2.66937 10.6809C0.345205 9.96088 0.00103843 6.80838 2.19854 3.88338ZM12.9719 7.81838C13.0073 7.95052 13.0684 8.0744 13.1516 8.18293C13.2349 8.29147 13.3387 8.38254 13.4572 8.45095C13.5757 8.51935 13.7065 8.56375 13.8421 8.58162C13.9777 8.59948 14.1156 8.59045 14.2477 8.55505C14.3798 8.51964 14.5037 8.45856 14.6123 8.37528C14.7208 8.29201 14.8119 8.18817 14.8803 8.0697C14.9487 7.95123 14.9931 7.82044 15.0109 7.68481C15.0288 7.54918 15.0198 7.41136 14.9844 7.27921C14.9129 7.01234 14.7383 6.7848 14.499 6.64665C14.2598 6.50849 13.9754 6.47105 13.7085 6.54255C13.4417 6.61404 13.2141 6.78863 13.076 7.02789C12.9378 7.26716 12.9004 7.55151 12.9719 7.81838ZM13.3844 10.725C13.417 10.8602 13.4763 10.9874 13.5588 11.0993C13.6413 11.2112 13.7454 11.3054 13.8649 11.3764C13.9844 11.4474 14.1169 11.4938 14.2546 11.5128C14.3923 11.5318 14.5324 11.523 14.6667 11.4871C14.801 11.4511 14.9267 11.3886 15.0364 11.3032C15.1462 11.2179 15.2377 11.1115 15.3057 10.9902C15.3736 10.869 15.4167 10.7353 15.4322 10.5972C15.4477 10.459 15.4354 10.3192 15.396 10.1859C15.3191 9.9253 15.1434 9.7051 14.9063 9.57225C14.6693 9.43939 14.3898 9.40441 14.1274 9.47475C13.8649 9.54509 13.6403 9.71519 13.5015 9.94876C13.3627 10.1823 13.3207 10.4609 13.3844 10.725ZM11.3227 5.31588C11.3942 5.58275 11.5688 5.81029 11.8081 5.94845C12.0473 6.0866 12.3317 6.12404 12.5985 6.05255C12.8654 5.98105 13.093 5.80646 13.2311 5.5672C13.3693 5.32793 13.4067 5.04359 13.3352 4.77671C13.2998 4.64457 13.2387 4.52069 13.1554 4.41216C13.0722 4.30362 12.9683 4.21255 12.8499 4.14415C12.6106 4.00599 12.3262 3.96855 12.0594 4.04005C11.7925 4.11154 11.565 4.28613 11.4268 4.52539C11.2887 4.76466 11.2512 5.04901 11.3227 5.31588ZM11.2994 12.8142C11.3348 12.9464 11.3959 13.0702 11.4791 13.1788C11.5624 13.2873 11.6662 13.3784 11.7847 13.4468C11.9032 13.5152 12.034 13.5596 12.1696 13.5774C12.3052 13.5953 12.4431 13.5863 12.5752 13.5509C12.7073 13.5155 12.8312 13.4544 12.9398 13.3711C13.0483 13.2878 13.1394 13.184 13.2078 13.0655C13.2762 12.9471 13.3206 12.8163 13.3384 12.6806C13.3563 12.545 13.3473 12.4072 13.3119 12.275C13.2404 12.0082 13.0658 11.7806 12.8265 11.6425C12.5873 11.5043 12.3029 11.4669 12.036 11.5384C11.7692 11.6099 11.5416 11.7845 11.4035 12.0237C11.2653 12.263 11.2279 12.5473 11.2994 12.8142ZM8.38521 4.50588C8.41961 4.63905 8.48004 4.76409 8.56303 4.87379C8.64601 4.98348 8.7499 5.07565 8.86869 5.14498C8.98748 5.21432 9.11883 5.25944 9.25515 5.27774C9.39147 5.29604 9.53007 5.28717 9.66294 5.25162C9.79581 5.21608 9.92033 5.15457 10.0293 5.07066C10.1383 4.98674 10.2296 4.88206 10.2979 4.76268C10.3662 4.6433 10.4102 4.51157 10.4273 4.3751C10.4444 4.23863 10.4344 4.10011 10.3977 3.96755C10.3244 3.70277 10.1496 3.47766 9.91111 3.34122C9.67267 3.20478 9.38998 3.16806 9.12459 3.23905C8.8592 3.31004 8.63259 3.483 8.49411 3.72026C8.35564 3.95753 8.31649 4.23989 8.38521 4.50588Z" fill="currentColor"/>
</svg>
