<svg width="20" height="21" viewBox="0 0 20 21" fill="none" xmlns="http://www.w3.org/2000/svg">
<circle cx="10.0588" cy="10.2353" r="9.88235" fill="white"/>
<g clip-path="url(#clip0_6534_5565)">
<path d="M10.0588 4.05878C8.54801 4.06322 7.09091 4.6197 5.96176 5.62348L5.27566 4.93738C5.20367 4.86542 5.11197 4.81642 5.01214 4.79656C4.91231 4.77671 4.80884 4.78691 4.7148 4.82585C4.62077 4.8648 4.54039 4.93076 4.48383 5.01538C4.42727 5.1 4.39707 5.19949 4.39705 5.30128V7.66172C4.39705 7.79823 4.45128 7.92914 4.54781 8.02567C4.64433 8.1222 4.77525 8.17642 4.91176 8.17642H7.2722C7.37398 8.1764 7.47347 8.1462 7.5581 8.08965C7.64272 8.03309 7.70867 7.95271 7.74762 7.85867C7.78657 7.76464 7.79676 7.66116 7.77691 7.56133C7.75706 7.46151 7.70806 7.3698 7.6361 7.29782L7.05191 6.71363C7.73363 6.13126 8.56972 5.75925 9.45872 5.64273C10.3477 5.5262 11.2514 5.67018 12.0602 6.05719C12.869 6.4442 13.5481 7.0576 14.0151 7.82299C14.4821 8.58837 14.717 9.47283 14.6912 10.3691C14.6581 11.5271 14.1922 12.6307 13.3856 13.4622C12.5789 14.2937 11.49 14.7928 10.3335 14.861C9.17704 14.9292 8.03697 14.5616 7.13814 13.8307C6.23931 13.0998 5.64697 12.0587 5.47793 10.9126C5.4538 10.7263 5.36296 10.555 5.22225 10.4304C5.08154 10.3059 4.90047 10.2366 4.71257 10.2352C4.60353 10.2338 4.49546 10.2557 4.39555 10.2994C4.29565 10.3431 4.20622 10.4076 4.13324 10.4886C4.06026 10.5697 4.00541 10.6653 3.97235 10.7692C3.93929 10.8731 3.92879 10.9829 3.94154 11.0912C4.15576 12.6075 4.92483 13.9905 6.0999 14.9724C7.27498 15.9544 8.77254 16.4656 10.3028 16.4071C11.8509 16.3325 13.3157 15.684 14.4116 14.5881C15.5076 13.4921 16.1561 12.0273 16.2307 10.4792C16.2626 9.64844 16.1266 8.81976 15.8309 8.04274C15.5352 7.26571 15.0858 6.5563 14.5097 5.95693C13.9335 5.35756 13.2424 4.88054 12.4776 4.5544C11.7129 4.22825 10.8902 4.05969 10.0588 4.05878Z" fill="#EF5B5B"/>
<path d="M9.80117 7.66156C9.59641 7.66156 9.40003 7.7429 9.25524 7.88769C9.11046 8.03248 9.02911 8.22886 9.02911 8.43362V10.6433C9.02917 10.9162 9.13767 11.178 9.33073 11.371L10.2536 12.2939C10.3992 12.4345 10.5942 12.5124 10.7967 12.5106C10.9991 12.5089 11.1927 12.4277 11.3359 12.2845C11.479 12.1414 11.5602 11.9477 11.562 11.7453C11.5637 11.5429 11.4859 11.3478 11.3453 11.2022L10.5732 10.4302V8.43362C10.5732 8.22886 10.4919 8.03248 10.3471 7.88769C10.2023 7.7429 10.0059 7.66156 9.80117 7.66156Z" fill="#EF5B5B"/>
</g>
<defs>
<clipPath id="clip0_6534_5565">
<rect width="12.3529" height="12.3529" fill="white" transform="translate(3.88251 4.05878)"/>
</clipPath>
</defs>
</svg>
