<svg width="16" height="17" viewBox="0 0 16 17" fill="none" xmlns="http://www.w3.org/2000/svg">
<g clip-path="url(#clip0_3759_3095)">
<path d="M8.00065 5.83203C7.47324 5.83203 6.95766 5.98843 6.51913 6.28145C6.0806 6.57446 5.73881 6.99094 5.53697 7.47821C5.33514 7.96548 5.28233 8.50166 5.38522 9.01894C5.48812 9.53622 5.74209 10.0114 6.11503 10.3843C6.48797 10.7573 6.96313 11.0112 7.48041 11.1141C7.99769 11.217 8.53387 11.1642 9.02114 10.9624C9.50841 10.7605 9.92489 10.4187 10.2179 9.98022C10.5109 9.54169 10.6673 9.02611 10.6673 8.4987C10.6673 7.79145 10.3864 7.11318 9.88627 6.61308C9.38617 6.11298 8.7079 5.83203 8.00065 5.83203ZM8.00065 9.83203C7.73694 9.83203 7.47916 9.75383 7.25989 9.60732C7.04063 9.46082 6.86973 9.25258 6.76881 9.00894C6.6679 8.76531 6.64149 8.49722 6.69294 8.23858C6.74439 7.97994 6.87137 7.74236 7.05784 7.55589C7.24431 7.36942 7.48189 7.24243 7.74053 7.19098C7.99917 7.13954 8.26726 7.16594 8.5109 7.26686C8.75453 7.36778 8.96277 7.53867 9.10928 7.75794C9.25579 7.9772 9.33399 8.23499 9.33399 8.4987C9.33399 8.85232 9.19351 9.19146 8.94346 9.44151C8.69341 9.69156 8.35427 9.83203 8.00065 9.83203Z" fill="currentColor"/>
<path d="M14.1965 9.76667L13.9005 9.596C14.0338 8.87096 14.0338 8.12771 13.9005 7.40267L14.1965 7.232C14.4241 7.10068 14.6237 6.92581 14.7837 6.71737C14.9438 6.50894 15.0612 6.27103 15.1293 6.01721C15.1974 5.7634 15.2148 5.49866 15.1806 5.23811C15.1464 4.97755 15.0612 4.72629 14.9299 4.49867C14.7985 4.27104 14.6237 4.07151 14.4152 3.91147C14.2068 3.75143 13.9689 3.634 13.7151 3.56591C13.4612 3.49781 13.1965 3.48037 12.936 3.51459C12.6754 3.54881 12.4241 3.63401 12.1965 3.76533L11.8999 3.93667C11.3395 3.45795 10.6956 3.08683 10.0005 2.842V2.5C10.0005 1.96957 9.7898 1.46086 9.41473 1.08579C9.03966 0.710714 8.53095 0.5 8.00052 0.5C7.47008 0.5 6.96138 0.710714 6.5863 1.08579C6.21123 1.46086 6.00052 1.96957 6.00052 2.5V2.842C5.30544 3.08771 4.66175 3.45973 4.10185 3.93933L3.80385 3.76667C3.34414 3.50145 2.7979 3.42971 2.28531 3.56724C1.77271 3.70477 1.33573 4.04029 1.07052 4.5C0.8053 4.95971 0.733565 5.50595 0.871092 6.01855C1.00862 6.53114 1.34414 6.96812 1.80385 7.23333L2.09985 7.404C1.96659 8.12904 1.96659 8.87229 2.09985 9.59733L1.80385 9.768C1.34414 10.0332 1.00862 10.4702 0.871092 10.9828C0.733565 11.4954 0.8053 12.0416 1.07052 12.5013C1.33573 12.961 1.77271 13.2966 2.28531 13.4341C2.7979 13.5716 3.34414 13.4999 3.80385 13.2347L4.10052 13.0633C4.66103 13.5421 5.30517 13.9132 6.00052 14.158V14.5C6.00052 15.0304 6.21123 15.5391 6.5863 15.9142C6.96138 16.2893 7.47008 16.5 8.00052 16.5C8.53095 16.5 9.03966 16.2893 9.41473 15.9142C9.7898 15.5391 10.0005 15.0304 10.0005 14.5V14.158C10.6956 13.9123 11.3393 13.5403 11.8992 13.0607L12.1972 13.2327C12.6569 13.4979 13.2031 13.5696 13.7157 13.4321C14.2283 13.2946 14.6653 12.959 14.9305 12.4993C15.1957 12.0396 15.2675 11.4934 15.1299 10.9808C14.9924 10.4682 14.6569 10.0312 14.1972 9.766L14.1965 9.76667ZM12.4979 7.24933C12.7236 8.06738 12.7236 8.93129 12.4979 9.74933C12.4584 9.89171 12.4674 10.0432 12.5234 10.1799C12.5794 10.3166 12.6792 10.4308 12.8072 10.5047L13.5299 10.922C13.6831 11.0104 13.7949 11.1561 13.8407 11.3269C13.8865 11.4977 13.8626 11.6798 13.7742 11.833C13.6858 11.9862 13.5401 12.098 13.3693 12.1438C13.1984 12.1897 13.0164 12.1657 12.8632 12.0773L12.1392 11.6587C12.0111 11.5845 11.862 11.555 11.7153 11.575C11.5687 11.5949 11.4328 11.663 11.3292 11.7687C10.7358 12.3744 9.98823 12.8067 9.16718 13.0187C9.02387 13.0555 8.89689 13.139 8.80625 13.2559C8.7156 13.3729 8.66644 13.5167 8.66652 13.6647V14.5C8.66652 14.6768 8.59628 14.8464 8.47126 14.9714C8.34623 15.0964 8.17666 15.1667 7.99985 15.1667C7.82304 15.1667 7.65347 15.0964 7.52845 14.9714C7.40342 14.8464 7.33318 14.6768 7.33318 14.5V13.6653C7.33326 13.5174 7.2841 13.3736 7.19345 13.2566C7.10281 13.1397 6.97583 13.0562 6.83252 13.0193C6.01142 12.8065 5.26407 12.3733 4.67118 11.7667C4.56753 11.661 4.43168 11.5929 4.28502 11.573C4.13837 11.553 3.98925 11.5825 3.86118 11.6567L3.13852 12.0747C3.06267 12.1191 2.97878 12.1482 2.89167 12.1601C2.80456 12.172 2.71595 12.1665 2.63095 12.1441C2.54595 12.1216 2.46624 12.0825 2.3964 12.0291C2.32656 11.9757 2.26797 11.909 2.22401 11.8329C2.18005 11.7567 2.15158 11.6727 2.14025 11.5855C2.12892 11.4983 2.13494 11.4097 2.15798 11.3249C2.18101 11.24 2.2206 11.1606 2.27447 11.0911C2.32834 11.0216 2.39542 10.9635 2.47185 10.92L3.19452 10.5027C3.32248 10.4288 3.4223 10.3146 3.47829 10.1779C3.53428 10.0412 3.54327 9.88972 3.50385 9.74733C3.27809 8.92929 3.27809 8.06538 3.50385 7.24733C3.54256 7.10525 3.53314 6.95436 3.47706 6.81819C3.42098 6.68203 3.32139 6.56827 3.19385 6.49467L2.47118 6.07733C2.31798 5.98893 2.20616 5.84328 2.16034 5.67244C2.11452 5.50159 2.13844 5.31954 2.22685 5.16633C2.31526 5.01313 2.4609 4.90131 2.63175 4.85549C2.80259 4.80967 2.98464 4.83359 3.13785 4.922L3.86185 5.34067C3.98957 5.41501 4.13837 5.44481 4.28487 5.42538C4.43137 5.40595 4.56726 5.3384 4.67118 5.23333C5.26458 4.62756 6.01213 4.19535 6.83318 3.98333C6.97694 3.94638 7.10425 3.8625 7.19494 3.745C7.28563 3.6275 7.33452 3.48309 7.33385 3.33467V2.5C7.33385 2.32319 7.40409 2.15362 7.52911 2.0286C7.65414 1.90357 7.82371 1.83333 8.00052 1.83333C8.17733 1.83333 8.3469 1.90357 8.47192 2.0286C8.59695 2.15362 8.66718 2.32319 8.66718 2.5V3.33467C8.66711 3.48264 8.71627 3.62643 8.80691 3.74339C8.89756 3.86035 9.02454 3.94382 9.16785 3.98067C9.98919 4.19343 10.7368 4.62659 11.3299 5.23333C11.4335 5.33898 11.5694 5.40713 11.716 5.42704C11.8627 5.44696 12.0118 5.41751 12.1399 5.34333L12.8625 4.92533C12.9384 4.88087 13.0223 4.85185 13.1094 4.83993C13.1965 4.82802 13.2851 4.83346 13.3701 4.85593C13.4551 4.87841 13.5348 4.91747 13.6046 4.97088C13.6745 5.02428 13.7331 5.09097 13.777 5.16712C13.821 5.24326 13.8495 5.32734 13.8608 5.41453C13.8721 5.50171 13.8661 5.59028 13.8431 5.67513C13.82 5.75998 13.7804 5.83943 13.7266 5.90892C13.6727 5.9784 13.6056 6.03655 13.5292 6.08L12.8065 6.49733C12.6792 6.57114 12.5799 6.68498 12.5241 6.82113C12.4682 6.95727 12.459 7.10807 12.4979 7.25V7.24933Z" fill="currentColor"/>
</g>
<defs>
<clipPath id="clip0_3759_3095">
<rect width="16" height="16" fill="currentColor" transform="translate(0 0.5)"/>
</clipPath>
</defs>
</svg>
