<svg width="20" height="20" viewBox="0 0 20 20" fill="none" xmlns="http://www.w3.org/2000/svg">
<g id="shield 2" clip-path="url(#clip0_5834_53903)">
<path id="Vector" d="M15.4845 1.78335L10.2637 0.0425176C10.0927 -0.0144167 9.90793 -0.0144167 9.73699 0.0425176L4.51533 1.78335C3.6854 2.05923 2.96351 2.5896 2.45219 3.29913C1.94087 4.00867 1.66613 4.86128 1.66699 5.73585V10C1.66699 16.3025 9.33366 19.7834 9.66199 19.9284C9.76851 19.9757 9.88377 20.0001 10.0003 20.0001C10.1169 20.0001 10.2321 19.9757 10.3387 19.9284C10.667 19.7834 18.3337 16.3025 18.3337 10V5.73585C18.3345 4.86117 18.0596 4.00849 17.5481 3.29894C17.0366 2.5894 16.3146 2.05909 15.4845 1.78335Z" fill="#F63131"/>
<g id="Group 1597886281">
<path id="i" d="M9.99991 16.3636C9.49783 16.3636 9.09082 15.9566 9.09082 15.4546V9.09091C9.09082 8.58884 9.49783 8.18182 9.99991 8.18182C10.502 8.18182 10.909 8.58884 10.909 9.09091V15.4546C10.909 15.9566 10.502 16.3636 9.99991 16.3636Z" fill="white"/>
<path id="i_2" d="M9.11413 5.78582C9.36051 6.02944 9.6558 6.15125 10 6.15125C10.3442 6.15125 10.6377 6.02944 10.8804 5.78582C11.1268 5.53833 11.25 5.24251 11.25 4.89834C11.25 4.55805 11.1268 4.26609 10.8804 4.02248C10.6377 3.77499 10.3442 3.65125 10 3.65125C9.6558 3.65125 9.36051 3.77499 9.11413 4.02248C8.87138 4.26609 8.75 4.55805 8.75 4.89834C8.75 5.24251 8.87138 5.53833 9.11413 5.78582Z" fill="white"/>
</g>
</g>
<defs>
<clipPath id="clip0_5834_53903">
<rect width="20" height="20" fill="white"/>
</clipPath>
</defs>
</svg>
