<svg width="30" height="32" viewBox="0 0 30 32" fill="none" xmlns="http://www.w3.org/2000/svg">
<path d="M23.6537 3.3396L15.8757 0.746111C15.621 0.66129 15.3457 0.66129 15.091 0.746111L7.31305 3.3396C6.0764 3.75039 5.00065 4.54045 4.23865 5.59753C3.47666 6.65461 3.06717 7.92494 3.06836 9.22804V15.5808C3.06836 24.9703 14.4902 30.156 14.9793 30.372C15.138 30.4425 15.3097 30.479 15.4834 30.479C15.657 30.479 15.8287 30.4425 15.9874 30.372C16.4766 30.156 27.8984 24.9703 27.8984 15.5808V9.22804C27.8996 7.92494 27.4901 6.65461 26.7281 5.59753C25.9661 4.54045 24.8903 3.75039 23.6537 3.3396ZM21.3408 12.7464L16.0371 18.0501C15.82 18.2686 15.5618 18.4418 15.2772 18.5597C14.9927 18.6775 14.6876 18.7377 14.3797 18.7367H14.3387C14.0245 18.7319 13.7145 18.6634 13.4275 18.5353C13.1404 18.4073 12.8824 18.2224 12.6689 17.9918L8.3871 15.0122C8.26312 14.8972 8.16394 14.758 8.09566 14.6033C8.02739 14.4485 7.99145 14.2815 7.99005 14.1123C7.98865 13.9432 8.02182 13.7756 8.08753 13.6197C8.15324 13.4639 8.2501 13.3231 8.37217 13.206C8.49423 13.089 8.63893 12.9981 8.79739 12.9389C8.95584 12.8798 9.12471 12.8537 9.29363 12.8621C9.46255 12.8706 9.62796 12.9135 9.77971 12.9882C9.93146 13.0628 10.4075 11.1954 10.5173 11.3241L13.5604 11.8695L19.5803 10.9872C19.8145 10.7611 20.1281 10.636 20.4536 10.6388C20.7791 10.6416 21.0905 10.7722 21.3207 11.0024C21.5508 11.2326 21.6814 11.5439 21.6842 11.8695C21.6871 12.195 21.5619 12.5086 21.3358 12.7427L21.3408 12.7464Z" fill="white" fill-opacity="0.3"/>
<g clip-path="url(#clip0_5834_54767)">
<path d="M21.3487 6.55271L15.6057 4.63779C15.4177 4.57516 15.2144 4.57516 15.0264 4.63779L9.28258 6.55271C8.36967 6.85617 7.57558 7.43958 7.01313 8.22007C6.45068 9.00055 6.14847 9.93843 6.14942 10.9005V15.591C6.14942 22.5238 14.5827 26.3527 14.9439 26.5122C15.0611 26.5643 15.1879 26.5912 15.3161 26.5912C15.4443 26.5912 15.5711 26.5643 15.6882 26.5122C16.0494 26.3527 24.4827 22.5238 24.4827 15.591V10.9005C24.4836 9.93831 24.1813 9.00036 23.6187 8.21986C23.056 7.43936 22.2618 6.85602 21.3487 6.55271Z" fill="white"/>
<path d="M15.3164 22.5911C14.7641 22.5911 14.3164 22.1433 14.3164 21.5911V14.5911C14.3164 14.0388 14.7641 13.5911 15.3164 13.5911C15.8687 13.5911 16.3164 14.0388 16.3164 14.5911V21.5911C16.3164 22.1433 15.8687 22.5911 15.3164 22.5911Z" fill="#FF2F2F"/>
<path d="M14.3419 10.9554C14.613 11.2234 14.9378 11.3574 15.3164 11.3574C15.695 11.3574 16.0179 11.2234 16.2849 10.9554C16.5559 10.6832 16.6914 10.3578 16.6914 9.97923C16.6914 9.60491 16.5559 9.28376 16.2849 9.01578C16.0179 8.74354 15.695 8.60742 15.3164 8.60742C14.9378 8.60742 14.613 8.74354 14.3419 9.01578C14.0749 9.28376 13.9414 9.60491 13.9414 9.97923C13.9414 10.3578 14.0749 10.6832 14.3419 10.9554Z" fill="#FF2F2F"/>
</g>
<defs>
<clipPath id="clip0_5834_54767">
<rect width="22" height="22" fill="white" transform="translate(4.31641 4.59106)"/>
</clipPath>
</defs>
</svg>
