<svg width="16" height="16" viewBox="0 0 16 16" fill="none" xmlns="http://www.w3.org/2000/svg">
<g clip-path="url(#clip0_3759_3086)">
<path d="M9.99414 10.5499C9.99414 10.5404 9.99731 10.5229 10.0037 10.4974L10.8914 7.58618C10.9167 7.50659 10.9749 7.44531 11.0656 7.40234C11.1562 7.35938 11.2604 7.33789 11.3782 7.33789C11.4958 7.33789 11.6001 7.35938 11.6908 7.40234C11.7815 7.44531 11.8395 7.50659 11.865 7.58618L12.7574 10.4974C12.7638 10.5229 12.7671 10.5404 12.7671 10.5499C12.7671 10.6327 12.7153 10.7043 12.6119 10.7648C12.5085 10.8252 12.4011 10.8553 12.2898 10.8553C12.153 10.8553 12.0718 10.8093 12.0464 10.717L11.8842 10.1205H10.8771L10.7148 10.717C10.6893 10.8093 10.6082 10.8553 10.4714 10.8553C10.36 10.8553 10.2526 10.8252 10.1492 10.7648C10.0458 10.7043 9.99414 10.6327 9.99414 10.5499ZM11.0298 9.54773H11.7266L11.3782 8.26868L11.0298 9.54773Z" fill="currentColor"/>
<path d="M13.7277 5.55713H10.5369V3.99109C10.5369 2.73816 9.51758 1.71875 8.26453 1.71875H2.27234C1.01941 1.71875 0 2.73816 0 3.99109V6.65881C0 7.89465 0.991577 8.9032 2.22107 8.93067C2.21289 9.18982 2.18396 9.47852 2.13452 9.79297C2.10107 10.0052 2.18005 10.2139 2.34558 10.3511C2.45667 10.4431 2.59204 10.491 2.73035 10.491C2.79919 10.491 2.86877 10.479 2.93652 10.4548C3.38696 10.2938 4.17053 9.8866 4.57458 8.93115H6.82654V10.4973C6.82654 11.7502 7.84595 12.7697 9.09888 12.7697H11.4254C11.8296 13.7251 12.613 14.1322 13.0636 14.2933C13.1312 14.3175 13.2008 14.3293 13.2697 14.3293C13.408 14.3293 13.5433 14.2815 13.6544 14.1895C13.8201 14.0524 13.8989 13.8436 13.8655 13.6313C13.816 13.317 13.7871 13.0282 13.7789 12.769C15.0084 12.7417 16 11.7332 16 10.4973V7.82959C16 6.57654 14.9806 5.55713 13.7277 5.55713ZM15.375 10.4972C15.375 11.4056 14.636 12.1447 13.7277 12.1447H13.467C13.2991 12.1447 13.1611 12.2775 13.1548 12.4454C13.1412 12.8063 13.1708 13.226 13.2427 13.6934C12.7877 13.5238 12.2042 13.1554 11.9375 12.358C11.8949 12.2306 11.7755 12.1447 11.6412 12.1447H9.09888C8.19055 12.1447 7.45154 11.4056 7.45154 10.4972V8.61902C7.45154 8.6189 7.45154 8.61878 7.45154 8.61865C7.45154 8.61853 7.45154 8.61841 7.45154 8.61829V7.82947C7.45154 7.54932 7.52307 7.27271 7.65833 7.02966C7.74231 6.87878 7.68811 6.6886 7.53723 6.60461C7.38647 6.52063 7.19617 6.57495 7.11218 6.72571C6.92529 7.06152 6.82654 7.44312 6.82654 7.82947V8.30615H4.35876C4.22437 8.30615 4.10498 8.39209 4.06238 8.51953C3.79578 9.3169 3.21228 9.68543 2.75732 9.85486C2.8291 9.38745 2.85864 8.96777 2.84521 8.60693C2.83887 8.43897 2.70093 8.30615 2.53284 8.30615H2.27234C1.36401 8.30615 0.625 7.56714 0.625 6.65881V3.99109C0.625 3.08276 1.36401 2.34375 2.27234 2.34375H8.26453C9.17285 2.34375 9.91187 3.08276 9.91187 3.99109V5.55725H9.46875C9.29614 5.55725 9.15625 5.69714 9.15625 5.86975C9.15625 6.04236 9.29614 6.18225 9.46875 6.18225H13.7277C14.636 6.18225 15.375 6.92127 15.375 7.82959V10.4972Z" fill="currentColor"/>
<path d="M6.48767 4.29675C6.66028 4.29675 6.80017 4.15686 6.80017 3.98425C6.80017 3.81165 6.66028 3.67175 6.48767 3.67175H5.29553V3.2041C5.29553 3.03149 5.15564 2.8916 4.98303 2.8916C4.81055 2.8916 4.67053 3.03149 4.67053 3.2041V3.67175H3.47852C3.30591 3.67175 3.16602 3.81165 3.16602 3.98425C3.16602 4.15686 3.30591 4.29675 3.47852 4.29675H5.5498C5.4906 4.55688 5.34448 4.97693 4.98438 5.44995C4.81104 5.22229 4.68909 5.01001 4.60376 4.82715C4.53076 4.67078 4.34473 4.60315 4.18835 4.67627C4.03198 4.74927 3.96436 4.93518 4.03735 5.09155C4.15039 5.33362 4.31714 5.61938 4.56177 5.92334C4.26135 6.21411 3.87341 6.51099 3.37195 6.7926C3.22144 6.87708 3.16797 7.0675 3.25244 7.21802C3.30969 7.32019 3.41589 7.37756 3.52527 7.37756C3.57703 7.37756 3.62952 7.36475 3.67786 7.33752C4.22168 7.03223 4.6488 6.70715 4.9845 6.38428C5.31738 6.70508 5.74329 7.03174 6.28821 7.33752C6.33667 7.36475 6.38916 7.37756 6.44092 7.37756C6.55017 7.37756 6.65637 7.32019 6.71375 7.21802C6.79822 7.0675 6.74463 6.87708 6.59424 6.7926C6.09229 6.51086 5.70557 6.21313 5.40698 5.92371C5.94788 5.25073 6.12695 4.63672 6.18591 4.29675H6.48767Z" fill="currentColor"/>
<path d="M8.21033 5.76953H8.20959C8.03711 5.76953 7.89746 5.90942 7.89746 6.08203C7.89746 6.25464 8.03784 6.39453 8.21033 6.39453C8.38293 6.39453 8.52283 6.25464 8.52283 6.08203C8.52283 5.90942 8.38293 5.76953 8.21033 5.76953Z" fill="currentColor"/>
</g>
<defs>
<clipPath id="clip0_3759_3086">
<rect width="16" height="16" fill="currentColor"/>
</clipPath>
</defs>
</svg>
