<svg width="80" height="80" viewBox="0 0 80 80" fill="none" xmlns="http://www.w3.org/2000/svg">
<path d="M65 7.5H15C13.0109 7.5 11.1032 8.29018 9.6967 9.6967C8.29018 11.1032 7.5 13.0109 7.5 15V65C7.5 66.9891 8.29018 68.8968 9.6967 70.3033C11.1032 71.7098 13.0109 72.5 15 72.5H65C66.9891 72.5 68.8968 71.7098 70.3033 70.3033C71.7098 68.8968 72.5 66.9891 72.5 65V15C72.5 13.0109 71.7098 11.1032 70.3033 9.6967C68.8968 8.29018 66.9891 7.5 65 7.5ZM20 35H25C25.663 35 26.2989 35.2634 26.7678 35.7322C27.2366 36.2011 27.5 36.837 27.5 37.5V42.5C27.5 43.163 27.2366 43.7989 26.7678 44.2678C26.2989 44.7366 25.663 45 25 45H20C19.337 45 18.7011 44.7366 18.2322 44.2678C17.7634 43.7989 17.5 43.163 17.5 42.5V37.5C17.5 36.837 17.7634 36.2011 18.2322 35.7322C18.7011 35.2634 19.337 35 20 35ZM17.5 27.5V22.5C17.5 21.837 17.7634 21.2011 18.2322 20.7322C18.7011 20.2634 19.337 20 20 20H25C25.663 20 26.2989 20.2634 26.7678 20.7322C27.2366 21.2011 27.5 21.837 27.5 22.5V27.5C27.5 28.163 27.2366 28.7989 26.7678 29.2678C26.2989 29.7366 25.663 30 25 30H20C19.337 30 18.7011 29.7366 18.2322 29.2678C17.7634 28.7989 17.5 28.163 17.5 27.5ZM20 50H25C25.663 50 26.2989 50.2634 26.7678 50.7322C27.2366 51.2011 27.5 51.837 27.5 52.5V57.5C27.5 58.163 27.2366 58.7989 26.7678 59.2678C26.2989 59.7366 25.663 60 25 60H20C19.337 60 18.7011 59.7366 18.2322 59.2678C17.7634 58.7989 17.5 58.163 17.5 57.5V52.5C17.5 51.837 17.7634 51.2011 18.2322 50.7322C18.7011 50.2634 19.337 50 20 50ZM35 52.5H60C60.663 52.5 61.2989 52.7634 61.7678 53.2322C62.2366 53.7011 62.5 54.337 62.5 55C62.5 55.663 62.2366 56.2989 61.7678 56.7678C61.2989 57.2366 60.663 57.5 60 57.5H35C34.337 57.5 33.7011 57.2366 33.2322 56.7678C32.7634 56.2989 32.5 55.663 32.5 55C32.5 54.337 32.7634 53.7011 33.2322 53.2322C33.7011 52.7634 34.337 52.5 35 52.5ZM32.5 40C32.5 39.337 32.7634 38.7011 33.2322 38.2322C33.7011 37.7634 34.337 37.5 35 37.5H60C60.663 37.5 61.2989 37.7634 61.7678 38.2322C62.2366 38.7011 62.5 39.337 62.5 40C62.5 40.663 62.2366 41.2989 61.7678 41.7678C61.2989 42.2366 60.663 42.5 60 42.5H35C34.337 42.5 33.7011 42.2366 33.2322 41.7678C32.7634 41.2989 32.5 40.663 32.5 40ZM60 27.5H35C34.337 27.5 33.7011 27.2366 33.2322 26.7678C32.7634 26.2989 32.5 25.663 32.5 25C32.5 24.337 32.7634 23.7011 33.2322 23.2322C33.7011 22.7634 34.337 22.5 35 22.5H60C60.663 22.5 61.2989 22.7634 61.7678 23.2322C62.2366 23.7011 62.5 24.337 62.5 25C62.5 25.663 62.2366 26.2989 61.7678 26.7678C61.2989 27.2366 60.663 27.5 60 27.5Z" fill="#2196F3"/>
<g clip-path="url(#clip0_2472_2887)">
<path d="M66 28C73.732 28 80 21.732 80 14C80 6.26801 73.732 0 66 0C58.268 0 52 6.26801 52 14C52 21.732 58.268 28 66 28Z" fill="#FF4949"/>
<path d="M72.1708 16H60.8313C59.8193 16 59 15.1052 59 14C59 12.8948 59.8193 12 60.8313 12H72.1687C73.1807 12 74 12.8948 74 14C74 15.1052 73.1807 16 72.1708 16Z" fill="#FFFCEE"/>
</g>
<defs>
<clipPath id="clip0_2472_2887">
<rect width="28" height="28" fill="white" transform="translate(52)"/>
</clipPath>
</defs>
</svg>
