<svg width="80" height="80" viewBox="0 0 80 80" fill="none" xmlns="http://www.w3.org/2000/svg">
<g clip-path="url(#clip0_2474_3086)">
<path d="M70.6214 53.4235C68.4711 59.2511 65.2191 64.3183 60.9546 68.4827C56.1005 73.2227 49.7443 76.9892 42.0624 79.6759C41.8103 79.7638 41.5473 79.8358 41.283 79.8889C40.9338 79.9579 40.5786 79.9952 40.2264 80H40.1575C39.7821 80 39.4049 79.9622 39.0308 79.8889C38.7665 79.8358 38.5071 79.7638 38.2562 79.6778C30.5652 76.9953 24.201 73.2306 19.342 68.4906C15.0757 64.3262 11.8243 59.2621 9.67711 53.4345C5.77268 42.8387 5.99485 31.1664 6.17368 21.7865L6.17674 21.6424C6.21275 20.8679 6.23594 20.0543 6.24876 19.1559C6.31406 14.7448 9.82115 11.0955 14.2328 10.8496C23.4308 10.3363 30.5463 7.33639 36.626 1.41048L36.6791 1.36165C37.6886 0.435749 38.9606 -0.0183534 40.2264 0.000567642C41.4472 0.0164368 42.663 0.469928 43.6365 1.36165L43.6884 1.41048C49.7693 7.33639 56.8848 10.3363 66.0828 10.8496C70.4944 11.0955 74.0015 14.7448 74.0668 19.1559C74.0796 20.0604 74.1028 20.8728 74.1388 21.6424L74.1407 21.7035C74.3189 31.1011 74.5398 42.7966 70.6214 53.4235Z" fill="#2196F3"/>
<path d="M58.7997 49.7313V57.553C58.7997 58.0845 58.3674 58.514 57.8311 58.514H53.9575C45.4226 58.514 37.3977 55.2149 31.3611 49.2252C25.3245 43.2354 22 35.273 22 26.804V22.961C22 22.429 22.4323 22 22.9686 22H30.7289C31.7362 22 32.6078 22.6409 32.8918 23.5825L34.906 31.9168C34.9836 32.2434 34.8866 32.5959 34.6413 32.833L32.1167 35.28C31.6263 35.7543 31.4904 36.4782 31.7745 37.0867C32.3167 38.2267 32.9495 39.3354 33.6598 40.3858C34.5379 41.6735 35.5452 42.8776 36.6491 43.9798C37.7594 45.075 38.9732 46.0743 40.271 46.9458C41.3296 47.6508 42.4464 48.2847 43.6025 48.8166C44.2094 49.0985 44.9392 48.9638 45.4167 48.4771L48.3089 45.5493C48.5606 45.2933 48.9287 45.1968 49.2775 45.2992L57.3218 47.6244C58.2057 47.9505 58.7997 48.7962 58.7997 49.7313Z" fill="white"/>
<g clip-path="url(#clip1_2474_3086)">
<path d="M66 28C73.732 28 80 21.732 80 14C80 6.26801 73.732 0 66 0C58.268 0 52 6.26801 52 14C52 21.732 58.268 28 66 28Z" fill="#FF4949"/>
<path d="M72.1708 16H60.8313C59.8193 16 59 15.1052 59 14C59 12.8948 59.8193 12 60.8313 12H72.1687C73.1807 12 74 12.8948 74 14C74 15.1052 73.1807 16 72.1708 16Z" fill="#FFFCEE"/>
</g>
</g>
<defs>
<clipPath id="clip0_2474_3086">
<rect width="80" height="80" fill="white"/>
</clipPath>
<clipPath id="clip1_2474_3086">
<rect width="28" height="28" fill="white" transform="translate(52)"/>
</clipPath>
</defs>
</svg>
