<svg width="80" height="80" viewBox="0 0 80 80" fill="none" xmlns="http://www.w3.org/2000/svg">
<g clip-path="url(#clip0_2474_3111)">
<path d="M70.6214 53.4235C68.4711 59.2511 65.2191 64.3183 60.9546 68.4827C56.1005 73.2227 49.7443 76.9892 42.0624 79.6759C41.8103 79.7638 41.5473 79.8358 41.283 79.8889C40.9338 79.9579 40.5786 79.9952 40.2264 80H40.1575C39.7821 80 39.4049 79.9622 39.0308 79.8889C38.7665 79.8358 38.5071 79.7638 38.2562 79.6778C30.5652 76.9953 24.201 73.2306 19.342 68.4906C15.0757 64.3262 11.8243 59.2621 9.67711 53.4345C5.77268 42.8387 5.99485 31.1664 6.17368 21.7865L6.17674 21.6424C6.21275 20.8679 6.23594 20.0543 6.24876 19.1559C6.31406 14.7448 9.82115 11.0955 14.2328 10.8496C23.4308 10.3363 30.5463 7.33639 36.626 1.41048L36.6791 1.36165C37.6886 0.435749 38.9606 -0.0183534 40.2264 0.000567642C41.4472 0.0164368 42.663 0.469928 43.6365 1.36165L43.6884 1.41048C49.7693 7.33639 56.8848 10.3363 66.0828 10.8496C70.4944 11.0955 74.0015 14.7448 74.0668 19.1559C74.0796 20.0604 74.1028 20.8728 74.1388 21.6424L74.1407 21.7035C74.3189 31.1011 74.5398 42.7966 70.6214 53.4235Z" fill="#2196F3"/>
<path d="M60.0939 39.9998C60.0939 50.9696 51.187 59.8991 40.2263 59.9381H40.1561C29.1631 59.9381 20.2178 50.9934 20.2178 39.9998C20.2178 29.0067 29.1631 20.062 40.1561 20.062H40.2263C51.187 20.1011 60.0939 29.0305 60.0939 39.9998Z" fill="white"/>
<path d="M49.206 37.1287L40.2265 46.1094L38.2862 48.0497C37.8278 48.5081 37.2266 48.737 36.626 48.737C36.0248 48.737 35.4243 48.5081 34.9653 48.0497L30.7935 43.8761C29.8768 42.9594 29.8768 41.4744 30.7935 40.557C31.709 39.6403 33.1959 39.6403 34.1126 40.557L36.626 43.0705L45.8869 33.8096C46.8037 32.8922 48.2905 32.8922 49.206 33.8096C50.1228 34.7264 50.1228 36.2132 49.206 37.1287Z" fill="#6E64FF"/>
<g clip-path="url(#clip1_2474_3111)">
<circle cx="66" cy="14" r="13" fill="white"/>
<path d="M66 0C58.2807 0 52 6.2807 52 14C52 21.7193 58.2807 28 66 28C73.7193 28 80 21.7193 80 14C80 6.2807 73.7193 0 66 0ZM73.8246 10.3158L64.8772 19.193C64.3509 19.7193 63.5088 19.7544 62.9474 19.2281L58.2105 14.9123C57.6491 14.386 57.614 13.5088 58.1053 12.9474C58.6316 12.386 59.5088 12.3509 60.0702 12.8772L63.8246 16.3158L71.8246 8.31579C72.386 7.75439 73.2632 7.75439 73.8246 8.31579C74.386 8.87719 74.386 9.75439 73.8246 10.3158Z" fill="#00BA6C"/>
</g>
</g>
<defs>
<clipPath id="clip0_2474_3111">
<rect width="80" height="80" fill="white"/>
</clipPath>
<clipPath id="clip1_2474_3111">
<rect width="28" height="28" fill="white" transform="translate(52)"/>
</clipPath>
</defs>
</svg>
