<svg width="21" height="22" viewBox="0 0 21 22" fill="fill-" xmlns="http://www.w3.org/2000/svg">
<g clip-path="url(#clip0_4255_3527)">
<path d="M10.4819 17.0508C10.482 15.9367 10.8069 14.8468 11.4167 13.9145C12.0265 12.9821 12.8948 12.2477 13.9155 11.8011C14.9361 11.3545 16.0648 11.2151 17.1635 11.3999C18.2621 11.5847 19.2831 12.0857 20.1015 12.8416C20.1286 10.8832 20.1123 8.92484 20.0527 6.96645C20.0202 5.62095 19.2605 4.27017 17.9878 3.6027C17.3337 3.25698 16.6561 2.92426 15.9707 2.60901C13.2627 3.48488 10.0911 4.64026 6.89225 6.07067C6.5847 6.20661 6.32122 6.42575 6.13152 6.70338C5.94181 6.98101 5.83341 7.30611 5.81853 7.64204C5.76856 9.18579 5.75313 10.7791 5.77344 12.3545C5.77507 12.4007 5.76185 12.4463 5.73571 12.4844C5.70957 12.5225 5.67189 12.5513 5.62821 12.5664C5.58453 12.5815 5.53714 12.5823 5.49301 12.5685C5.44888 12.5547 5.41033 12.5271 5.38303 12.4898C5.04449 12.0565 4.7138 11.628 4.39097 11.2044C4.36714 11.1713 4.33172 11.1484 4.29175 11.1402C4.25179 11.132 4.2102 11.1391 4.17525 11.1602C3.92419 11.3097 3.67759 11.4571 3.43547 11.6026C3.29978 11.6838 3.13281 11.5754 3.132 11.4084C3.12388 9.83904 3.16288 8.26563 3.24697 6.74057C3.28231 6.09748 3.68572 5.49176 4.2825 5.19682C7.3505 3.68151 10.6237 2.44367 13.4166 1.52757C12.7666 1.27326 12.1203 1.04007 11.4894 0.819072C10.6387 0.526974 9.71487 0.526974 8.86419 0.819072C6.759 1.54545 4.46003 2.49363 2.36541 3.6027C1.09303 4.27017 0.334156 5.62095 0.300438 6.96645C0.217562 9.65582 0.217562 12.3452 0.300438 15.0346C0.332938 16.3801 1.09303 17.7309 2.36541 18.3983C4.46003 19.5074 6.759 20.4556 8.86541 21.1815C9.71609 21.4736 10.6399 21.4736 11.4906 21.1815C11.6745 21.1182 11.8601 21.0528 12.0476 20.9853C11.0389 19.9241 10.4782 18.5149 10.4819 17.0508Z" fill="#1E2124"/>
<path d="M16.2126 12.7016C15.3523 12.7016 14.5114 12.9568 13.7961 13.4349C13.0808 13.9129 12.5234 14.5923 12.1942 15.3871C11.8651 16.1819 11.779 17.0565 11.9469 17.9003C12.1149 18.744 12.5292 19.519 13.1376 20.1273C13.7459 20.7356 14.521 21.1497 15.3648 21.3175C16.2086 21.4853 17.0832 21.399 17.8779 21.0697C18.6727 20.7405 19.352 20.1829 19.8299 19.4675C20.3078 18.7522 20.5628 17.9112 20.5627 17.0509C20.5627 16.4797 20.4501 15.9141 20.2315 15.3863C20.0128 14.8586 19.6924 14.3792 19.2884 13.9753C18.8845 13.5714 18.4049 13.2511 17.8772 13.0325C17.3494 12.814 16.7838 12.7015 16.2126 12.7016Z" fill="#1E2124"/>
<g clip-path="url(#clip1_4255_3527)">
<path d="M17.3066 16.9984L18.2127 16.0923C18.463 15.842 18.463 15.4363 18.2127 15.1861C17.9625 14.9359 17.5568 14.9359 17.3066 15.1861L16.4004 16.0923L15.4942 15.1861C15.244 14.9359 14.8383 14.9359 14.5881 15.1861C14.3378 15.4363 14.3378 15.842 14.5881 16.0923L15.4942 16.9984L14.5881 17.9046C14.3378 18.1548 14.3378 18.5606 14.5881 18.8108C14.8383 19.061 15.244 19.061 15.4942 18.8108L16.4004 17.9046L17.3066 18.8108C17.5568 19.061 17.9625 19.061 18.2127 18.8108C18.463 18.5606 18.463 18.1548 18.2127 17.9046L17.3066 16.9984Z" fill="white"/>
</g>
</g>
<defs>
<clipPath id="clip0_4255_3527">
<rect width="20.8" height="20.8" fill="white" transform="translate(0 0.599998)"/>
</clipPath>
<clipPath id="clip1_4255_3527">
<rect width="4" height="4" fill="white" transform="translate(14.4004 14.9984)"/>
</clipPath>
</defs>
</svg>
