<svg width="18" height="19" viewBox="0 0 18 19" fill="none" xmlns="http://www.w3.org/2000/svg">
<path d="M14.25 10.52H1.5C1.1925 10.52 0.9375 10.265 0.9375 9.95749C0.9375 9.64999 1.1925 9.39499 1.5 9.39499H14.25C14.5575 9.39499 14.8125 9.64999 14.8125 9.95749C14.8125 10.265 14.5575 10.52 14.25 10.52Z" fill="#7EB7B0"/>
<path d="M11.415 16.8125H4.33502C1.76252 16.8125 0.9375 15.995 0.9375 13.4525V8.20999C0.9375 6.19249 1.39502 4.99999 3.72002 4.86499C3.91502 4.85749 4.11752 4.84999 4.33502 4.84999H11.415C13.9875 4.84999 14.8125 5.66749 14.8125 8.20999V13.5725C14.7825 16.025 13.9575 16.8125 11.415 16.8125ZM4.33502 5.97499C4.13252 5.97499 3.94502 5.98249 3.77252 5.98999C2.43002 6.07249 2.0625 6.35749 2.0625 8.20999V13.4525C2.0625 15.3725 2.37752 15.6875 4.33502 15.6875H11.415C13.35 15.6875 13.665 15.3875 13.6875 13.565V8.20999C13.6875 6.28999 13.3725 5.97499 11.415 5.97499H4.33502Z" fill="#7EB7B0"/>
<path d="M14.25 14.135C14.1075 14.135 13.965 14.0825 13.8675 13.985C13.755 13.88 13.6875 13.73 13.6875 13.5725V8.21C13.6875 6.29 13.3725 5.975 11.415 5.975H4.33502C4.13252 5.975 3.94502 5.9825 3.77252 5.99C3.62252 5.9975 3.47249 5.9375 3.35999 5.8325C3.24749 5.7275 3.1875 5.5775 3.1875 5.42C3.2175 2.975 4.04252 2.1875 6.58502 2.1875H13.665C16.2375 2.1875 17.0625 3.005 17.0625 5.5475V10.79C17.0625 12.8075 16.605 14 14.28 14.135C14.2725 14.135 14.2575 14.135 14.25 14.135ZM4.33502 4.85H11.415C13.9875 4.85 14.8125 5.6675 14.8125 8.21V12.95C15.6825 12.7925 15.9375 12.3425 15.9375 10.79V5.5475C15.9375 3.6275 15.6225 3.3125 13.665 3.3125H6.58502C4.87502 3.3125 4.43252 3.545 4.33502 4.85Z" fill="#7EB7B0"/>
<path d="M5.22069 14.42H3.93066C3.62316 14.42 3.36816 14.165 3.36816 13.8575C3.36816 13.55 3.62316 13.295 3.93066 13.295H5.22069C5.52819 13.295 5.78319 13.55 5.78319 13.8575C5.78319 14.165 5.53569 14.42 5.22069 14.42Z" fill="#7EB7B0"/>
<path d="M9.41203 14.42H6.83203C6.52453 14.42 6.26953 14.165 6.26953 13.8575C6.26953 13.55 6.52453 13.295 6.83203 13.295H9.41203C9.71953 13.295 9.97453 13.55 9.97453 13.8575C9.97453 14.165 9.72703 14.42 9.41203 14.42Z" fill="#7EB7B0"/>
</svg>
