<svg width="22" height="22" viewBox="0 0 22 22" fill="none" xmlns="http://www.w3.org/2000/svg">
<path d="M14.4375 1.375H12.9442C12.661 0.57475 11.8965 0 11 0C10.1035 0 9.339 0.57475 9.05438 1.375H7.5625C7.183 1.375 6.875 1.683 6.875 2.0625V4.8125C6.875 5.192 7.183 5.5 7.5625 5.5H14.4375C14.817 5.5 15.125 5.192 15.125 4.8125V2.0625C15.125 1.683 14.817 1.375 14.4375 1.375Z" fill="currentColor"/>
<path d="M17.875 2.75H16.5V4.8125C16.5 5.94963 15.5746 6.875 14.4375 6.875H7.5625C6.42537 6.875 5.5 5.94963 5.5 4.8125V2.75H4.125C3.36738 2.75 2.75 3.36738 2.75 4.125V20.625C2.75 21.3964 3.35362 22 4.125 22H17.875C18.6464 22 19.25 21.3964 19.25 20.625V4.125C19.25 3.35362 18.6464 2.75 17.875 2.75ZM10.7992 14.9242L8.04925 17.6742C7.9145 17.8076 7.7385 17.875 7.5625 17.875C7.3865 17.875 7.2105 17.8076 7.07575 17.6742L5.70075 16.2992C5.43262 16.0311 5.43262 15.5953 5.70075 15.3271C5.96887 15.059 6.40475 15.059 6.67288 15.3271L7.5625 16.2154L9.82575 13.9521C10.0939 13.684 10.5298 13.684 10.7979 13.9521C11.066 14.2203 11.0674 14.6547 10.7992 14.9242ZM10.7992 9.42425L8.04925 12.1742C7.9145 12.3076 7.7385 12.375 7.5625 12.375C7.3865 12.375 7.2105 12.3076 7.07575 12.1742L5.70075 10.7992C5.43262 10.5311 5.43262 10.0952 5.70075 9.82712C5.96887 9.559 6.40475 9.559 6.67288 9.82712L7.5625 10.7154L9.82575 8.45212C10.0939 8.184 10.5298 8.184 10.7979 8.45212C11.066 8.72025 11.0674 9.15475 10.7992 9.42425ZM15.8125 16.5H13.0625C12.683 16.5 12.375 16.192 12.375 15.8125C12.375 15.433 12.683 15.125 13.0625 15.125H15.8125C16.192 15.125 16.5 15.433 16.5 15.8125C16.5 16.192 16.192 16.5 15.8125 16.5ZM15.8125 11H13.0625C12.683 11 12.375 10.692 12.375 10.3125C12.375 9.933 12.683 9.625 13.0625 9.625H15.8125C16.192 9.625 16.5 9.933 16.5 10.3125C16.5 10.692 16.192 11 15.8125 11Z" fill="currentColor"/>
</svg>
