<svg width="24" height="24" viewBox="0 0 24 24" fill="none" xmlns="http://www.w3.org/2000/svg">
<g clip-path="url(#clip0_3580_13886)">
<path d="M12.0939 18.9811C12.0941 17.6956 12.4689 16.438 13.1726 15.3622C13.8762 14.2864 14.8781 13.4391 16.0558 12.9238C17.2335 12.4085 18.5358 12.2476 19.8035 12.4608C21.0712 12.674 22.2492 13.2521 23.1935 14.1244C23.2247 11.8647 23.206 9.60499 23.1372 7.34531C23.0997 5.79281 22.2232 4.23421 20.7546 3.46406C19.9999 3.06515 19.218 2.68124 18.4272 2.31749C15.3025 3.32812 11.643 4.66124 7.95207 6.31171C7.5972 6.46857 7.29319 6.72142 7.0743 7.04177C6.85541 7.36212 6.73033 7.73723 6.71316 8.12484C6.65551 9.90609 6.6377 11.7445 6.66113 13.5623C6.66302 13.6156 6.64777 13.6682 6.61761 13.7122C6.58744 13.7562 6.54397 13.7893 6.49356 13.8068C6.44316 13.8243 6.38848 13.8251 6.33756 13.8092C6.28664 13.7933 6.24217 13.7615 6.21066 13.7184C5.82004 13.2184 5.43848 12.7241 5.06598 12.2353C5.03848 12.1971 4.99761 12.1706 4.9515 12.1612C4.90539 12.1517 4.8574 12.1599 4.81707 12.1842C4.52738 12.3567 4.24285 12.5269 3.96348 12.6947C3.80691 12.7884 3.61426 12.6633 3.61332 12.4706C3.60395 10.6598 3.64895 8.84437 3.74598 7.08468C3.78676 6.34265 4.25223 5.64374 4.94082 5.30343C8.48082 3.55499 12.2575 2.12671 15.4802 1.06968C14.7302 0.776245 13.9844 0.507182 13.2564 0.252182C12.2749 -0.0848542 11.2089 -0.0848542 10.2274 0.252182C7.79832 1.09031 5.14566 2.18437 2.72879 3.46406C1.26066 4.23421 0.385039 5.79281 0.346133 7.34531C0.250508 10.4484 0.250508 13.5516 0.346133 16.6547C0.383633 18.2072 1.26066 19.7658 2.72879 20.5359C5.14566 21.8156 7.79832 22.9097 10.2288 23.7473C11.2104 24.0844 12.2763 24.0844 13.2579 23.7473C13.47 23.6742 13.6843 23.5987 13.9005 23.5209C12.7367 22.2964 12.0897 20.6704 12.0939 18.9811Z" fill="currentColor"/>
<path d="M18.7059 13.9626C17.7133 13.9627 16.743 14.2572 15.9177 14.8087C15.0924 15.3603 14.4491 16.1442 14.0694 17.0613C13.6896 17.9785 13.5903 18.9876 13.784 19.9612C13.9778 20.9347 14.4559 21.8289 15.1578 22.5308C15.8598 23.2326 16.7541 23.7105 17.7277 23.9041C18.7013 24.0977 19.7104 23.9982 20.6275 23.6182C21.5445 23.2383 22.3283 22.5949 22.8797 21.7695C23.4311 20.9441 23.7254 19.9737 23.7253 18.9811C23.7253 18.322 23.5954 17.6694 23.3431 17.0605C23.0908 16.4516 22.7211 15.8983 22.255 15.4323C21.7889 14.9663 21.2356 14.5967 20.6266 14.3445C20.0177 14.0923 19.365 13.9626 18.7059 13.9626ZM21.5686 18.1505L18.5517 21.3183C18.4696 21.4046 18.3709 21.4735 18.2615 21.5207C18.1521 21.5679 18.0343 21.5925 17.9152 21.593H17.9109C17.7925 21.5929 17.6753 21.5691 17.5662 21.523C17.4571 21.4768 17.3583 21.4093 17.2758 21.3244L15.675 19.6753C15.5115 19.5068 15.4217 19.2804 15.4252 19.0456C15.4287 18.8109 15.5253 18.5872 15.6938 18.4237C15.8622 18.2603 16.0887 18.1704 16.3234 18.1739C16.5581 18.1774 16.7818 18.274 16.9453 18.4425L17.9058 19.4311L20.2875 16.9298C20.4513 16.7694 20.6709 16.6787 20.9002 16.677C21.1295 16.6753 21.3505 16.7626 21.5166 16.9205C21.6828 17.0785 21.7812 17.2948 21.7911 17.5239C21.8009 17.753 21.7215 17.9769 21.5695 18.1486L21.5686 18.1505Z" fill="currentColor"/>
</g>
<defs>
<clipPath id="clip0_3580_13886">
<rect width="24" height="24" fill="white"/>
</clipPath>
</defs>
</svg>
