<svg width="20" height="20" viewBox="0 0 20 20" fill="none" xmlns="http://www.w3.org/2000/svg">
<path d="M16.25 10C16.25 7.95937 15.2669 6.14438 13.75 5.00313V3.125C13.75 2.78 13.47 2.5 13.125 2.5C12.78 2.5 12.5 2.78 12.5 3.125V4.2725C11.7337 3.93687 10.8888 3.75 10 3.75C9.11125 3.75 8.26625 3.93687 7.5 4.2725V3.125C7.5 2.78 7.22 2.5 6.875 2.5C6.53 2.5 6.25 2.78 6.25 3.125V5.00313C4.73312 6.14438 3.75 7.95937 3.75 10C3.75 12.0406 4.73312 13.8556 6.25 14.9969V16.875C6.25 17.2206 6.53 17.5 6.875 17.5C7.22 17.5 7.5 17.2206 7.5 16.875V15.7275C8.26625 16.0631 9.11125 16.25 10 16.25C10.8888 16.25 11.7337 16.0631 12.5 15.7275V16.875C12.5 17.2206 12.78 17.5 13.125 17.5C13.47 17.5 13.75 17.2206 13.75 16.875V14.9969C15.2669 13.8556 16.25 12.0406 16.25 10ZM5 10C5 7.24312 7.24313 5 10 5C12.7569 5 15 7.24312 15 10C15 12.7569 12.7569 15 10 15C7.24313 15 5 12.7569 5 10ZM11.6919 10.8081C11.9362 11.0525 11.9362 11.4475 11.6919 11.6919C11.57 11.8138 11.41 11.875 11.25 11.875C11.09 11.875 10.93 11.8138 10.8081 11.6919L9.55813 10.4419C9.44063 10.3244 9.375 10.1656 9.375 10V7.5C9.375 7.155 9.655 6.875 10 6.875C10.345 6.875 10.625 7.155 10.625 7.5V9.74125L11.6919 10.8081Z" fill="currentColor"/>
</svg>
