<svg width="24" height="24" viewBox="0 0 24 24" fill="none" xmlns="http://www.w3.org/2000/svg">
<path d="M15.0625 4.46873C15.0625 3.2662 14.0898 2.25937 12.8531 2.25937H2.20941C0.970125 2.25937 0 3.26882 0 4.46873V12.8031H15.0625V4.46873Z" fill="currentColor"/>
<path d="M0 17.2719C0 17.9948 0.345937 18.6351 0.880922 19.0379C1.10058 17.2251 2.64769 15.8156 4.51875 15.8156C6.53995 15.8156 8.18433 17.46 8.18433 19.4812H15.0624V14.2094H0V17.2719Z" fill="currentColor"/>
<path d="M4.51914 17.2219C3.2733 17.2219 2.25977 18.2354 2.25977 19.4812C2.25977 20.727 3.27334 21.7406 4.51914 21.7406C5.76494 21.7406 6.77847 20.7271 6.77847 19.4812C6.77847 18.2354 5.76498 17.2219 4.51914 17.2219Z" fill="currentColor"/>
<path d="M18.8282 13.5062V6.77812H16.4688V16.5979C17.0919 16.1085 17.8762 15.8156 18.7281 15.8156C20.7214 15.8156 22.3471 17.4152 22.3916 19.398C23.3196 19.1366 24 18.2857 24 17.2719V14.2094H19.5313C19.143 14.2094 18.8282 13.8945 18.8282 13.5062Z" fill="currentColor"/>
<path d="M24 12.8031V11.2469C24 9.01809 22.3683 7.17066 20.2344 6.83334V12.8031H24Z" fill="currentColor"/>
<path d="M18.7281 21.7406C19.9759 21.7406 20.9875 20.7291 20.9875 19.4812C20.9875 18.2334 19.9759 17.2219 18.7281 17.2219C17.4803 17.2219 16.4688 18.2334 16.4688 19.4812C16.4688 20.7291 17.4803 21.7406 18.7281 21.7406Z" fill="currentColor"/>
</svg>
