<svg width="24" height="24" viewBox="0 0 24 24" fill="none" xmlns="http://www.w3.org/2000/svg">
<path d="M21.6151 20.0301L19.7424 6.91748C19.6673 6.40303 19.4101 5.9326 19.0176 5.5917C18.625 5.25081 18.1232 5.06207 17.6033 5.0598H15.8469L15.4942 4.00149C14.3807 0.667756 9.62077 0.664572 8.50628 4.00153L8.15351 5.0598H6.39716C5.87733 5.06233 5.37564 5.25116 4.98315 5.59201C4.59065 5.93286 4.33338 6.40314 4.25802 6.91748L2.38533 20.0301C2.34339 20.3364 2.36726 20.6481 2.45535 20.9445C2.54343 21.2409 2.69372 21.5151 2.89616 21.7488C3.09861 21.9825 3.34857 22.1703 3.62936 22.2998C3.91015 22.4292 4.21532 22.4973 4.52451 22.4994L19.476 22.4995C19.7851 22.4973 20.0903 22.4292 20.3711 22.2998C20.6519 22.1703 20.9018 21.9825 21.1043 21.7488C21.3067 21.5151 21.457 21.2409 21.5451 20.9445C21.6332 20.6481 21.657 20.3364 21.6151 20.0301ZM9.21934 4.23792C10.0855 1.58788 13.9154 1.58846 14.7811 4.23797L15.0551 5.0598H8.94536L9.21934 4.23792ZM12.0002 18.9342C10.6571 18.9322 9.36966 18.3978 8.41996 17.4481C7.47027 16.4984 6.93584 15.2109 6.93382 13.8678C7.2176 7.14565 16.7839 7.14762 17.0666 13.8679C17.0646 15.2109 16.5302 16.4984 15.5805 17.4481C14.6308 18.3978 13.3433 18.9322 12.0002 18.9342Z" fill="currentColor"/>
<path d="M11.9994 9.552C10.8552 9.55343 9.75831 10.0086 8.94924 10.8177C8.14018 11.6267 7.68502 12.7236 7.68359 13.8678C7.92129 19.5933 16.0784 19.5916 16.3152 13.8678C16.3138 12.7236 15.8586 11.6267 15.0496 10.8176C14.2405 10.0086 13.1436 9.55343 11.9994 9.552ZM14.6114 12.8283L12.0032 15.4365C11.9326 15.506 11.8376 15.545 11.7386 15.545C11.6396 15.545 11.5445 15.506 11.474 15.4365L10.1718 14.1343C10.1014 14.0634 10.062 13.9676 10.062 13.8678C10.062 13.768 10.1014 13.6722 10.1718 13.6014C10.2065 13.5666 10.2477 13.539 10.2931 13.5201C10.3385 13.5013 10.3872 13.4916 10.4363 13.4916C10.4855 13.4916 10.5342 13.5013 10.5796 13.5201C10.625 13.539 10.6662 13.5666 10.7009 13.6014L11.7405 14.6409L14.0785 12.2991C14.1491 12.2308 14.2438 12.1929 14.3421 12.1935C14.4404 12.1941 14.5345 12.2333 14.6043 12.3026C14.674 12.3718 14.7138 12.4657 14.7152 12.564C14.7165 12.6622 14.6793 12.7571 14.6114 12.8283Z" fill="currentColor"/>
</svg>
