<svg width="16" height="17" viewBox="0 0 16 17" fill="none" xmlns="http://www.w3.org/2000/svg">
<path d="M12.947 8.33333H10.667C10.3937 8.33333 10.167 8.10666 10.167 7.83333V3.17333C10.167 2.67999 10.3603 2.22 10.707 1.87333C11.0537 1.52666 11.5137 1.33333 12.007 1.33333H12.0137C12.847 1.33999 13.6337 1.66666 14.2337 2.25999C14.8337 2.86666 15.1603 3.66666 15.1603 4.49999V6.11333C15.167 7.43999 14.2737 8.33333 12.947 8.33333ZM11.167 7.33333H12.947C13.7203 7.33333 14.167 6.88666 14.167 6.11333V4.49999C14.167 3.92666 13.9403 3.38 13.5337 2.96666C13.127 2.56666 12.5803 2.33999 12.0137 2.33333C12.0137 2.33333 12.0137 2.33333 12.007 2.33333C11.787 2.33333 11.5737 2.41999 11.4137 2.57999C11.2537 2.73999 11.167 2.94666 11.167 3.17333V7.33333Z" fill="currentColor"/>
<path d="M5.99984 16.0533C5.68651 16.0533 5.39318 15.9333 5.17318 15.7067L4.06651 14.5933C4.00651 14.5333 3.91317 14.5267 3.84651 14.58L2.70651 15.4333C2.35317 15.7 1.88651 15.7467 1.48651 15.5467C1.08651 15.3467 0.839844 14.9467 0.839844 14.5V4.49999C0.839844 2.48666 1.99318 1.33333 4.00651 1.33333H12.0065C12.2798 1.33333 12.5065 1.55999 12.5065 1.83333C12.5065 2.10666 12.2798 2.33333 12.0065 2.33333C11.5465 2.33333 11.1732 2.70666 11.1732 3.16666V14.5C11.1732 14.9467 10.9265 15.3467 10.5265 15.5467C10.1265 15.7467 9.65984 15.7067 9.30651 15.44L8.16651 14.5867C8.09984 14.5333 8.00651 14.5467 7.95318 14.6L6.83318 15.72C6.60651 15.9333 6.31318 16.0533 5.99984 16.0533ZM3.93984 13.5467C4.24651 13.5467 4.54651 13.66 4.77318 13.8933L5.87984 15.0067C5.91984 15.0467 5.97318 15.0533 5.99984 15.0533C5.99318 15.04 6.07984 15.0467 6.11984 15.0067L7.23984 13.8867C7.65318 13.4733 8.30651 13.4333 8.76651 13.7867L9.89984 14.6333C9.97318 14.6867 10.0398 14.6667 10.0732 14.6467C10.1065 14.6267 10.1665 14.5867 10.1665 14.5V3.16666C10.1665 2.86666 10.2398 2.57999 10.3665 2.33333H3.99984C2.51984 2.33333 1.83318 3.01999 1.83318 4.49999V14.5C1.83318 14.5933 1.89318 14.6333 1.92651 14.6533C1.96651 14.6733 2.03318 14.6867 2.09984 14.6333L3.23984 13.78C3.44651 13.6267 3.69318 13.5467 3.93984 13.5467Z" fill="currentColor"/>
<path d="M7.83366 7.66667H4.16699C3.89366 7.66667 3.66699 7.44001 3.66699 7.16667C3.66699 6.89334 3.89366 6.66667 4.16699 6.66667H7.83366C8.10699 6.66667 8.33366 6.89334 8.33366 7.16667C8.33366 7.44001 8.10699 7.66667 7.83366 7.66667Z" fill="currentColor"/>
</svg>
