<svg width="22" height="22" viewBox="0 0 22 22" fill="none" xmlns="http://www.w3.org/2000/svg">
<path d="M19.3317 17.9602L17.7087 6.59594C17.6436 6.15008 17.4207 5.74237 17.0804 5.44693C16.7402 5.15149 16.3053 4.98792 15.8547 4.98595H14.3326L14.0268 4.06874C13.0619 1.17951 8.93656 1.17675 7.97068 4.06878L7.66494 4.98595H6.14278C5.69226 4.98814 5.25745 5.15179 4.91729 5.4472C4.57713 5.7426 4.35416 6.15017 4.28885 6.59594L2.66586 17.9602C2.62951 18.2257 2.65019 18.4958 2.72654 18.7527C2.80288 19.0096 2.93312 19.2472 3.10858 19.4497C3.28403 19.6523 3.50066 19.8151 3.74401 19.9272C3.98737 20.0394 4.25185 20.0984 4.51981 20.1003L17.4777 20.1003C17.7457 20.0984 18.0102 20.0394 18.2535 19.9272C18.4969 19.8151 18.7135 19.6523 18.8889 19.4497C19.0644 19.2472 19.1946 19.0096 19.271 18.7527C19.3473 18.4958 19.368 18.2257 19.3317 17.9602ZM8.58866 4.27365C9.33933 1.97695 12.6586 1.97745 13.4088 4.27369L13.6463 4.98595H8.35122L8.58866 4.27365ZM10.9988 17.0104C9.83476 17.0087 8.71894 16.5455 7.89587 15.7225C7.0728 14.8994 6.60963 13.7836 6.60788 12.6196C6.85382 6.79368 15.1446 6.79539 15.3896 12.6196C15.3879 13.7836 14.9247 14.8994 14.1016 15.7225C13.2786 16.5455 12.1627 17.0087 10.9988 17.0104Z" fill="#1E2124"/>
<path d="M11.0001 8.87735C10.0085 8.87859 9.05785 9.27307 8.35666 9.97426C7.65547 10.6754 7.261 11.6261 7.25977 12.6177C7.46577 17.5798 14.5353 17.5783 14.7405 12.6177C14.7393 11.6261 14.3448 10.6754 13.6436 9.97424C12.9424 9.27306 11.9918 8.87859 11.0001 8.87735ZM13.2639 11.7168L11.0034 13.9773C10.9423 14.0375 10.8599 14.0713 10.7741 14.0713C10.6883 14.0713 10.6059 14.0375 10.5448 13.9773L9.41617 12.8487C9.35523 12.7872 9.32103 12.7042 9.32103 12.6177C9.32103 12.5312 9.35523 12.4482 9.41617 12.3868C9.44626 12.3566 9.482 12.3327 9.52134 12.3164C9.56069 12.3001 9.60287 12.2917 9.64547 12.2917C9.68807 12.2917 9.73025 12.3001 9.7696 12.3164C9.80894 12.3327 9.84468 12.3566 9.87477 12.3868L10.7757 13.2877L12.802 11.2582C12.8632 11.199 12.9453 11.1661 13.0305 11.1667C13.1156 11.1672 13.1972 11.2011 13.2577 11.2612C13.3181 11.3212 13.3526 11.4025 13.3538 11.4877C13.355 11.5729 13.3227 11.6551 13.2639 11.7168Z" fill="#1E2124"/>
</svg>
