<svg width="22" height="22" viewBox="0 0 22 22" fill="none" xmlns="http://www.w3.org/2000/svg">
<path d="M5.17656 20.6008H16.8164C18.9045 20.6008 20.6004 18.9048 20.6004 16.8248V5.17676C20.6004 3.09678 18.9045 1.40079 16.8164 1.40079H14.2244V6.3127C14.2244 6.44883 14.1445 6.58477 14.0244 6.65674C13.9045 6.72872 13.7605 6.72872 13.6324 6.66475L11.2484 5.39278C11.0084 5.25674 10.7045 5.26475 10.4645 5.4088L8.36055 6.65674C8.02583 6.8241 7.76055 6.57257 7.76055 6.3127V1.40079H5.17656C3.08848 1.40079 1.40039 3.09678 1.40039 5.17676V16.8248C1.40039 18.9048 3.08848 20.6008 5.17656 20.6008ZM5.69648 11.4888V11.4808C5.7501 11.4005 7.19225 9.97616 7.27246 9.89678C7.58437 9.58477 8.08848 9.58477 8.40039 9.89678C8.7125 10.2088 8.7125 10.7127 8.40039 11.0248L8.29648 11.1287H13.2244C14.9926 11.1287 16.4324 12.5607 16.4324 14.3287C16.4324 16.0968 14.9926 17.5367 13.2244 17.5367H10.1605C9.72051 17.5367 9.36055 17.1768 9.36055 16.7367C9.36055 16.2968 9.72051 15.9367 10.1605 15.9367H13.2244C14.1125 15.9367 14.8324 15.2168 14.8324 14.3287C14.8324 13.4488 14.1125 12.7287 13.2244 12.7287H8.28848L8.40039 12.8408C8.7125 13.1527 8.7125 13.6648 8.40039 13.9768C8.08704 14.2901 7.57702 14.2813 7.27246 13.9768C7.19242 13.8963 5.7062 12.4021 5.80039 12.4968C5.48379 12.101 5.51905 11.8429 5.69648 11.4888Z" fill="#1E2124"/>
</svg>
