<svg width="28" height="28" viewBox="0 0 28 28" fill="none" xmlns="http://www.w3.org/2000/svg">
<g id="Group 34280">
<g id="Ellipse 2" filter="url(#filter0_d_4766_4591)">
<ellipse cx="14.3425" cy="14.18" rx="12.3425" ry="12.18" fill="#EBEBEB" fill-opacity="0.8"/>
</g>
<path id="Vector" d="M18.9899 9.17155L14.5 13.6034L10.0101 9.17155C9.7788 8.94318 9.40487 8.94318 9.17351 9.17155C8.94216 9.39991 8.94216 9.76901 9.17351 9.99737L13.6634 14.4292L9.17351 18.8584C8.94216 19.0867 8.94216 19.4558 9.17351 19.6842C9.40487 19.9126 9.7788 19.9126 10.0101 19.6842L14.5 15.2524L18.9899 19.6842C19.2212 19.9126 19.5951 19.9126 19.8265 19.6842C20.0578 19.4558 20.0578 19.0867 19.8265 18.8584L15.3366 14.4292L19.8265 9.99737C20.0578 9.76901 20.0578 9.39991 19.8265 9.17155C19.5951 8.94318 19.2212 8.94318 18.9899 9.17155Z" fill="#38423E"/>
</g>
<defs>
<filter id="filter0_d_4766_4591" x="0.765754" y="0.765754" width="27.1531" height="26.8285" filterUnits="userSpaceOnUse" color-interpolation-filters="sRGB">
<feFlood flood-opacity="0" result="BackgroundImageFix"/>
<feColorMatrix in="SourceAlpha" type="matrix" values="0 0 0 0 0 0 0 0 0 0 0 0 0 0 0 0 0 0 127 0" result="hardAlpha"/>
<feOffset/>
<feGaussianBlur stdDeviation="0.617123"/>
<feColorMatrix type="matrix" values="0 0 0 0 0 0 0 0 0 0 0 0 0 0 0 0 0 0 0.25 0"/>
<feBlend mode="normal" in2="BackgroundImageFix" result="effect1_dropShadow_4766_4591"/>
<feBlend mode="normal" in="SourceGraphic" in2="effect1_dropShadow_4766_4591" result="shape"/>
</filter>
</defs>
</svg>
