<svg width="14" height="15" viewBox="0 0 14 15" fill="none" xmlns="http://www.w3.org/2000/svg">
<g clip-path="url(#clip0_4240_1593)">
<path d="M10.6709 4.79508L11.1644 4.30158C10.1727 3.01242 8.63392 2.24942 7.00058 2.24942C4.1055 2.25 1.75 4.60492 1.75 7.5C1.75 10.3951 4.1055 12.75 7 12.75C9.59583 12.75 11.83 10.8162 12.1963 8.25133C12.2652 7.77358 12.7102 7.44225 13.1862 7.50875C13.6646 7.57758 13.9977 8.02092 13.9288 8.49867C13.4394 11.9199 10.4609 14.5 6.99942 14.5C3.14008 14.5 0 11.3599 0 7.5C0 3.64008 3.14008 0.5 7 0.5C9.10117 0.5 11.0845 1.44617 12.4093 3.05675L13.0521 2.41392C13.4021 2.06392 14 2.31183 14 2.8065V5.04067C14 5.42858 13.6856 5.743 13.2971 5.743H11.0629C10.5682 5.743 10.3209 5.14508 10.6709 4.79508ZM7 12.1667C7.48358 12.1667 7.875 11.7747 7.875 11.2917V10.9014C8.71967 10.6319 9.33333 9.83975 9.33333 8.90758C9.33333 8.04658 8.81708 7.28417 8.0185 6.96508L6.63133 6.40975C6.50067 6.35783 6.41667 6.233 6.41667 6.09242C6.41667 5.904 6.57008 5.75 6.75908 5.75H7.448C7.55358 5.75 7.64808 5.80483 7.70117 5.89642C7.94325 6.31467 8.47875 6.45817 8.897 6.21608C9.31525 5.974 9.45817 5.4385 9.21667 5.02025C8.92558 4.51625 8.43267 4.16567 7.87558 4.04608V3.70833C7.87558 3.22533 7.48417 2.83333 7.00058 2.83333C6.517 2.83333 6.12558 3.22533 6.12558 3.70833V4.09858C5.28092 4.3675 4.66725 5.16025 4.66725 6.09242C4.66725 6.954 5.1835 7.71583 5.98208 8.03492L7.36867 8.58967C7.49933 8.64217 7.58333 8.767 7.58333 8.90758C7.58333 9.096 7.42992 9.25 7.24092 9.25H6.552C6.44642 9.25 6.35192 9.19517 6.29883 9.10358C6.05675 8.68533 5.52125 8.54242 5.10358 8.78392C4.68533 9.026 4.54242 9.5615 4.7845 9.97975C5.07558 10.4837 5.56792 10.8343 6.125 10.9545V11.2917C6.125 11.7747 6.51642 12.1667 7 12.1667Z" fill="#48615E"/>
</g>
<defs>
<clipPath id="clip0_4240_1593">
<rect width="14" height="14" fill="white" transform="translate(0 0.5)"/>
</clipPath>
</defs>
</svg>
