<svg width="62" height="62" viewBox="0 0 62 62" fill="none" xmlns="http://www.w3.org/2000/svg">
<rect width="62" height="62" rx="31" fill="#FF2F2F"/>
<path d="M41.7289 15.3017L32.0842 12.0857C31.7684 11.9805 31.427 11.9805 31.1113 12.0857L21.4665 15.3017C19.9331 15.811 18.5992 16.7907 17.6543 18.1015C16.7094 19.4123 16.2016 20.9875 16.2031 22.6033V30.4807C16.2031 42.1237 30.3662 48.554 30.9727 48.8218C31.1695 48.9093 31.3824 48.9544 31.5977 48.9544C31.813 48.9544 32.026 48.9093 32.2227 48.8218C32.8293 48.554 46.9923 42.1237 46.9923 30.4807V22.6033C46.9938 20.9875 46.486 19.4123 45.5412 18.1015C44.5963 16.7907 43.2624 15.811 41.7289 15.3017ZM38.8609 26.9661L32.2843 33.5427C32.0152 33.8136 31.6949 34.0284 31.3421 34.1745C30.9893 34.3207 30.611 34.3953 30.2291 34.394H30.1783C29.7887 34.3881 29.4043 34.3031 29.0484 34.1444C28.6925 33.9856 28.3725 33.7563 28.1078 33.4704L22.7984 29.7757C22.6446 29.633 22.5216 29.4605 22.437 29.2686C22.3523 29.0767 22.3078 28.8696 22.306 28.6598C22.3043 28.4501 22.3454 28.2423 22.4269 28.049C22.5084 27.8558 22.6285 27.6812 22.7798 27.536C22.9312 27.3909 23.1106 27.2782 23.3071 27.2048C23.5036 27.1315 23.713 27.0991 23.9225 27.1096C24.1319 27.1201 24.337 27.1733 24.5252 27.2659C24.7134 27.3585 25.3037 25.0428 25.4398 25.2024L29.2133 25.8787L36.6779 24.7847C36.9683 24.5043 37.3572 24.3491 37.7608 24.3526C38.1644 24.3561 38.5506 24.5181 38.836 24.8035C39.1214 25.0889 39.2833 25.475 39.2868 25.8787C39.2903 26.2823 39.1352 26.6712 38.8547 26.9615L38.8609 26.9661Z" fill="white" fill-opacity="0.3"/>
<g clip-path="url(#clip0_6338_2385)">
<path d="M38.8705 19.2859L31.7493 16.9114C31.5161 16.8337 31.2641 16.8337 31.0309 16.9114L23.9086 19.2859C22.7766 19.6622 21.7919 20.3856 21.0945 21.3534C20.397 22.3212 20.0223 23.4842 20.0234 24.6771V30.4934C20.0234 39.09 30.4808 43.8379 30.9286 44.0357C31.0739 44.1002 31.2311 44.1336 31.3901 44.1336C31.5491 44.1336 31.7063 44.1002 31.8516 44.0357C32.2994 43.8379 42.7568 39.09 42.7568 30.4934V24.6771C42.7579 23.484 42.383 22.321 41.6853 21.3532C40.9876 20.3853 40.0027 19.662 38.8705 19.2859Z" fill="white"/>
<path d="M31.3904 39.1733C30.7056 39.1733 30.1504 38.6181 30.1504 37.9333V29.2533C30.1504 28.5685 30.7056 28.0133 31.3904 28.0133C32.0752 28.0133 32.6304 28.5685 32.6304 29.2533V37.9333C32.6304 38.6181 32.0752 39.1733 31.3904 39.1733Z" fill="#FF2F2F"/>
<path d="M30.1822 24.7452C30.5183 25.0775 30.9211 25.2436 31.3905 25.2436C31.86 25.2436 32.2603 25.0775 32.5915 24.7452C32.9275 24.4076 33.0955 24.0041 33.0955 23.5347C33.0955 23.0705 32.9275 22.6723 32.5915 22.34C32.2603 22.0024 31.86 21.8336 31.3905 21.8336C30.9211 21.8336 30.5183 22.0024 30.1822 22.34C29.8511 22.6723 29.6855 23.0705 29.6855 23.5347C29.6855 24.0041 29.8511 24.4076 30.1822 24.7452Z" fill="#FF2F2F"/>
</g>
<defs>
<clipPath id="clip0_6338_2385">
<rect width="27.28" height="27.28" fill="white" transform="translate(17.75 16.8534)"/>
</clipPath>
</defs>
</svg>
